<svg width="56" height="55" viewBox="0 0 56 55" fill="none" xmlns="http://www.w3.org/2000/svg">
<g filter="url(#filter0_d_165_734)">
<circle cx="27.1982" cy="26.7249" r="25.241" fill="white"/>
</g>
<path fill-rule="evenodd" clip-rule="evenodd" d="M7.55237 34.7988C7.55237 33.3355 8.42042 32.1493 9.49121 32.1493L13.8707 32.1493C14.9415 32.1493 15.8095 33.3355 15.8095 34.7988C15.8095 36.2621 14.9415 37.4484 13.8707 37.4484L9.49121 37.4484C8.42042 37.4484 7.55237 36.2621 7.55237 34.7988Z" fill="#7B88D9"/>
<path fill-rule="evenodd" clip-rule="evenodd" d="M39.3811 18.3504C39.3811 16.9424 40.2491 15.801 41.3199 15.801L45.6994 15.801C46.7702 15.801 47.6382 16.9424 47.6382 18.3504C47.6382 19.7585 46.7702 20.8999 45.6994 20.8999L41.3199 20.8999C40.2491 20.8999 39.3811 19.7585 39.3811 18.3504Z" fill="#7B88D9"/>
<path fill-rule="evenodd" clip-rule="evenodd" d="M36.59 19.9686C36.9287 19.3226 37.5835 18.92 38.2957 18.92H43.8976V20.9191H38.2957L34.393 28.2036C34.1384 28.6893 33.9098 28.3449 33.4388 28.0825C32.9678 27.82 32.7923 27.2135 33.0469 26.7279L36.59 19.9686Z" fill="#7B88D9"/>
<path fill-rule="evenodd" clip-rule="evenodd" d="M18.224 36.4541C17.876 37.066 17.2396 37.4419 16.5516 37.4419L10.927 37.4419L10.927 35.4429L16.5516 35.4429L20.8886 27.8182C21.1595 27.342 21.7534 27.1824 22.2152 27.4616C22.6771 27.7409 22.8319 28.3533 22.561 28.8295L18.224 36.4541Z" fill="#7B88D9"/>
<path fill-rule="evenodd" clip-rule="evenodd" d="M24.267 15.8015L30.9576 15.8018C32.493 15.8018 33.7639 17.0326 33.86 18.6126L34.9749 36.9322C35.0804 38.6673 33.7374 40.1311 32.0513 40.1185L23.0796 40.0517C21.4065 40.0392 20.0887 38.5774 20.1986 36.8561L21.3649 18.603C21.4656 17.0268 22.735 15.8015 24.267 15.8015ZM24.2669 17.8006C23.7562 17.8005 23.3331 18.209 23.2996 18.7344L22.1333 36.9875C22.0966 37.5612 22.5359 38.0485 23.0936 38.0527L32.0653 38.1195C32.6273 38.1237 33.075 37.6358 33.0398 37.0574L31.925 18.7377C31.8929 18.2111 31.4693 17.8008 30.9575 17.8008L24.2669 17.8006Z" fill="#7B88D9"/>
<path fill-rule="evenodd" clip-rule="evenodd" d="M25.7353 20.4379L29.4612 20.4381C30.0328 20.4381 30.5027 20.9028 30.5266 21.4916L31.087 35.307C31.1126 35.9364 30.621 36.4592 30.0101 36.4524L25.1375 36.3979C24.5348 36.3912 24.0573 35.8712 24.0838 35.2503L24.6699 21.4891C24.695 20.9012 25.1646 20.4378 25.7353 20.4379ZM25.7353 21.4374C25.6834 21.4374 25.6407 21.4795 25.6384 21.533L25.0522 35.2942C25.0498 35.3506 25.0932 35.3979 25.148 35.3985L30.0206 35.4529C30.0761 35.4536 30.1208 35.406 30.1185 35.3488L29.558 21.5334C29.5558 21.4799 29.5131 21.4376 29.4611 21.4376L25.7353 21.4374Z" fill="#7B88D9"/>
<defs>
<filter id="filter0_d_165_734" x="0.957153" y="0.483887" width="54.4821" height="54.4821" filterUnits="userSpaceOnUse" color-interpolation-filters="sRGB">
<feFlood flood-opacity="0" result="BackgroundImageFix"/>
<feColorMatrix in="SourceAlpha" type="matrix" values="0 0 0 0 0 0 0 0 0 0 0 0 0 0 0 0 0 0 127 0" result="hardAlpha"/>
<feOffset dx="1" dy="1"/>
<feGaussianBlur stdDeviation="1"/>
<feComposite in2="hardAlpha" operator="out"/>
<feColorMatrix type="matrix" values="0 0 0 0 0 0 0 0 0 0 0 0 0 0 0 0 0 0 0.1 0"/>
<feBlend mode="normal" in2="BackgroundImageFix" result="effect1_dropShadow_165_734"/>
<feBlend mode="normal" in="SourceGraphic" in2="effect1_dropShadow_165_734" result="shape"/>
</filter>
</defs>
</svg>
