<svg width="56" height="55" viewBox="0 0 56 55" fill="none" xmlns="http://www.w3.org/2000/svg">
<g filter="url(#filter0_d_165_727)">
<circle cx="26.9526" cy="26.7247" r="25.241" fill="white"/>
</g>
<g clip-path="url(#clip0_165_727)">
<path d="M16.6136 41.3245C16.4539 41.4867 16.2395 41.5835 16.0122 41.596C15.7849 41.6086 15.5611 41.536 15.3845 41.3924L15.3108 41.3245L12.8939 38.8753C12.5701 38.5457 12.5417 38.0274 12.8286 37.6655L12.8945 37.5905L15.0659 35.3888L16.3687 36.6716L14.8307 38.2329L15.9616 39.3806L17.5494 37.7702L18.8522 39.053L16.6136 41.3245ZM26.8592 31.3272L25.5059 30.098L32.1557 22.7858L33.509 24.015L26.8592 31.3272ZM39.1435 18.0708L37.8627 16.7654L39.5087 15.153L38.3778 14.0454L36.799 15.5938L35.5181 14.2884L37.7373 12.1131C37.8961 11.9574 38.1061 11.8648 38.3282 11.8527C38.5502 11.8406 38.7691 11.9097 38.9439 12.0472L39.0175 12.1131L41.4539 14.4997C41.6168 14.6592 41.7143 14.8738 41.7271 15.1015C41.7399 15.3292 41.6671 15.5534 41.523 15.7301L41.4545 15.8051L39.1435 18.0715L39.1435 18.0708ZM24.1992 28.6685L22.8453 27.4387L29.4952 20.1265L30.849 21.3563L24.1992 28.6685Z" fill="#7B88D9"/>
<path d="M41.3226 23.4373L41.5204 23.237C42.6481 22.0821 42.6481 20.2093 41.5204 19.0558L34.7077 12.0887C34.438 11.8119 34.1155 11.5919 33.7594 11.4417C33.4033 11.2915 33.0207 11.2141 32.6342 11.2141C32.2478 11.2141 31.8652 11.2915 31.5091 11.4417C31.153 11.5919 30.8305 11.8119 30.5608 12.0887L30.3643 12.2903C29.2366 13.4438 29.2366 15.3173 30.3643 16.4702L37.177 23.4373C37.4467 23.7139 37.7691 23.9337 38.1251 24.0838C38.481 24.2339 38.8635 24.3112 39.2498 24.3112C39.6362 24.3112 40.0186 24.2339 40.3746 24.0838C40.7306 23.9337 41.0529 23.7139 41.3226 23.4373ZM38.485 22.1603L31.6723 15.1919C31.2393 14.737 31.2393 14.0222 31.6723 13.5673L31.8694 13.3669C31.9687 13.2645 32.0876 13.183 32.219 13.1274C32.3503 13.0717 32.4916 13.0431 32.6342 13.0431C32.7769 13.0431 32.9181 13.0717 33.0495 13.1274C33.1809 13.183 33.2998 13.2645 33.3991 13.3669L40.2137 20.3328C40.4224 20.5518 40.5388 20.8428 40.5388 21.1454C40.5388 21.448 40.4224 21.739 40.2137 21.9581L40.0159 22.1584C39.9166 22.2609 39.7978 22.3424 39.6664 22.3981C39.535 22.4538 39.3938 22.4826 39.2511 22.4827C39.1084 22.4828 38.9671 22.4543 38.8356 22.3988C38.7041 22.3433 38.5851 22.262 38.4856 22.1597L38.485 22.1597L38.485 22.1603ZM29.2134 40.6751L29.4111 40.4742C30.5382 39.32 30.5388 37.4472 29.4111 36.2936L17.8499 24.4732C17.5801 24.1967 17.2576 23.9769 16.9016 23.8269C16.5456 23.6768 16.1631 23.5995 15.7767 23.5995C15.3904 23.5995 15.0079 23.6768 14.6519 23.8269C14.2958 23.9769 13.9734 24.1967 13.7036 24.4732L13.5058 24.6749C12.3794 25.8271 12.3794 27.7012 13.5071 28.8541L25.0664 40.6764C25.3362 40.9532 25.6586 41.1732 26.0147 41.3234C26.3708 41.4736 26.7534 41.551 27.1399 41.551C27.5264 41.551 27.909 41.4736 28.2651 41.3234C28.6212 41.1732 28.9436 40.9532 29.2134 40.6764L29.2134 40.6751ZM26.3744 39.3982L14.8158 27.5771C14.6066 27.3583 14.4899 27.0672 14.4899 26.7645C14.4899 26.4618 14.6066 26.1707 14.8158 25.9518L15.0129 25.7502C15.1124 25.6482 15.2313 25.5671 15.3627 25.5118C15.494 25.4565 15.6351 25.428 15.7776 25.4282C15.9202 25.4283 16.0612 25.4569 16.1925 25.5125C16.3237 25.568 16.4425 25.6493 16.5419 25.7515L28.1038 37.5719C28.3123 37.7907 28.4287 38.0814 28.429 38.3836C28.4292 38.6859 28.3132 38.9767 28.1051 39.1959L27.9073 39.3975C27.8079 39.5002 27.689 39.5818 27.5574 39.6376C27.4259 39.6933 27.2845 39.7221 27.1417 39.7222C26.9988 39.7222 26.8574 39.6936 26.7258 39.6379C26.5942 39.5823 26.4752 39.5007 26.3757 39.3982L26.3744 39.3982Z" fill="#7B88D9"/>
<path d="M23.7973 41.3606L23.9957 41.1583C25.1227 40.0041 25.1227 38.132 23.9957 36.9778L17.183 30.0113C16.9132 29.7346 16.5907 29.5146 16.2345 29.3645C15.8783 29.2143 15.4957 29.1369 15.1092 29.1369C14.7227 29.1369 14.3401 29.2143 13.9839 29.3645C13.6278 29.5146 13.3053 29.7346 13.0354 30.0113L12.8383 30.2129C11.7113 31.3671 11.7113 33.2399 12.8383 34.3935L19.6503 41.3606C19.9202 41.6372 20.2426 41.8571 20.5987 42.0072C20.9548 42.1573 21.3374 42.2346 21.7238 42.2346C22.1102 42.2346 22.4928 42.1573 22.8489 42.0072C23.205 41.8571 23.5274 41.6372 23.7973 41.3606ZM20.959 40.0823L14.147 33.1158C13.714 32.6602 13.714 31.9461 14.147 31.4905L14.3447 31.2896C14.4441 31.1872 14.563 31.1058 14.6945 31.0502C14.8259 30.9946 14.9671 30.9659 15.1099 30.9659C15.2526 30.9659 15.3938 30.9946 15.5252 31.0502C15.6567 31.1058 15.7756 31.1872 15.875 31.2896L22.6877 38.2554C22.8961 38.4745 23.0123 38.7653 23.0123 39.0677C23.0123 39.3701 22.8961 39.6609 22.6877 39.88L22.4899 40.081C22.3905 40.1836 22.2715 40.2651 22.14 40.3209C22.0085 40.3766 21.8671 40.4053 21.7243 40.4054C21.5814 40.4054 21.44 40.3768 21.3085 40.3212C21.1769 40.2656 21.0578 40.1842 20.9583 40.0817L20.9583 40.0823L20.959 40.0823ZM40.7146 28.7589L40.9065 28.5586C42.0032 27.4166 42.0032 25.5665 40.9065 24.4226L29.691 12.7256C29.4284 12.4494 29.1123 12.2294 28.762 12.079C28.4118 11.9287 28.0346 11.8512 27.6534 11.8512C27.2722 11.8512 26.895 11.9287 26.5447 12.079C26.1945 12.2294 25.8784 12.4494 25.6158 12.7256L25.4239 12.9273C24.3285 14.0679 24.3285 15.9187 25.4258 17.0619L36.6407 28.7589C36.9032 29.0351 37.2191 29.2551 37.5693 29.4054C37.9194 29.5557 38.2965 29.6333 38.6776 29.6333C39.0587 29.6333 39.4358 29.5557 39.786 29.4054C40.1361 29.2551 40.4521 29.0351 40.7146 28.7589ZM37.9616 27.4942L26.7454 15.7972C26.3273 15.361 26.3273 14.6275 26.7454 14.19L26.938 13.9897C27.0299 13.8918 27.1408 13.8139 27.264 13.7606C27.3872 13.7073 27.52 13.6798 27.6542 13.6799C27.7884 13.6799 27.9212 13.7075 28.0443 13.7609C28.1674 13.8143 28.2783 13.8924 28.3701 13.9903L39.5843 25.6867C40.0037 26.1229 40.0037 26.8576 39.5849 27.2926L39.3937 27.4929C39.3018 27.5912 39.1907 27.6696 39.0673 27.7232C38.944 27.7768 38.8109 27.8044 38.6763 27.8044C38.5418 27.8044 38.4087 27.7768 38.2853 27.7232C38.1619 27.6696 38.0508 27.5912 37.959 27.4929L37.9609 27.4942L37.9616 27.4942Z" fill="#7B88D9"/>
</g>
<defs>
<filter id="filter0_d_165_727" x="0.711609" y="0.483643" width="54.4821" height="54.4821" filterUnits="userSpaceOnUse" color-interpolation-filters="sRGB">
<feFlood flood-opacity="0" result="BackgroundImageFix"/>
<feColorMatrix in="SourceAlpha" type="matrix" values="0 0 0 0 0 0 0 0 0 0 0 0 0 0 0 0 0 0 127 0" result="hardAlpha"/>
<feOffset dx="1" dy="1"/>
<feGaussianBlur stdDeviation="1"/>
<feComposite in2="hardAlpha" operator="out"/>
<feColorMatrix type="matrix" values="0 0 0 0 0 0 0 0 0 0 0 0 0 0 0 0 0 0 0.1 0"/>
<feBlend mode="normal" in2="BackgroundImageFix" result="effect1_dropShadow_165_727"/>
<feBlend mode="normal" in="SourceGraphic" in2="effect1_dropShadow_165_727" result="shape"/>
</filter>
<clipPath id="clip0_165_727">
<rect width="31.0199" height="31.0199" fill="white" transform="translate(42.6908 42.2346) rotate(-180)"/>
</clipPath>
</defs>
</svg>
