<svg width="55" height="55" viewBox="0 0 55 55" fill="none" xmlns="http://www.w3.org/2000/svg">
<g filter="url(#filter0_d_1095_1118)">
<circle cx="26.6751" cy="26.4363" r="25.241" fill="white"/>
</g>
<path d="M42.9795 21.3349C42.9729 21.2217 42.9481 21.1103 42.906 21.0049C42.906 20.8954 42.906 20.7844 42.8325 20.7109L42.6855 20.3434C42.6855 20.3074 42.648 20.2699 42.648 20.2699L40.9965 16.5259C40.6849 15.8134 40.1925 15.1947 39.5682 14.7311C38.9438 14.2675 38.2092 13.9751 37.437 13.8829H37.362C37.179 13.8469 36.996 13.8079 36.8475 13.8079C33.6915 13.4404 30.3885 13.2949 27.012 13.2949C23.5995 13.2949 20.295 13.4419 17.1765 13.7719H17.103C17.028 13.7719 16.956 13.8079 16.8825 13.8079C16.773 13.8079 16.662 13.8439 16.5525 13.8439C15.7833 13.9323 15.0515 14.2236 14.4321 14.6881C13.8126 15.1525 13.3279 15.7733 13.0275 16.4869L11.523 19.9744C11.376 20.2309 11.2665 20.5234 11.1555 20.8189V20.8924C11.1195 21.0394 11.0835 21.2224 11.046 21.4054C10.3166 25.7552 10.3181 30.1962 11.0505 34.5454C11.418 36.4909 12.9585 37.9579 14.8665 38.1799C17.106 38.4724 18.6105 38.6194 19.4535 38.6929H19.7475C21.2895 38.6929 22.611 37.2619 23.895 35.8669C24.9225 34.7659 26.0955 33.4819 26.9775 33.4819C27.8595 33.4819 29.034 34.7284 30.06 35.8669C31.419 37.3354 32.814 38.8399 34.428 38.6929C35.2005 38.6194 36.741 38.4739 39.1275 38.1799C41.109 37.9219 42.6495 36.4549 42.9435 34.5454C43.311 32.3074 43.494 30.1789 43.494 27.9769C43.527 25.7518 43.3548 23.5284 42.9795 21.3349ZM14.427 17.0404C14.6263 16.5676 14.9499 16.1575 15.3635 15.8538C15.777 15.5501 16.2652 15.364 16.776 15.3154H16.848C16.923 15.3154 16.995 15.2794 17.0685 15.2794C17.178 15.2794 17.289 15.2434 17.361 15.2434C20.4075 14.9134 23.6745 14.7664 27.0135 14.7664C30.354 14.7664 33.621 14.9134 36.741 15.2434H36.8145C36.8895 15.2434 36.999 15.2794 37.146 15.2794L37.2555 15.3154H37.2915C37.8098 15.3709 38.3039 15.5634 38.7231 15.8732C39.1422 16.1829 39.4713 16.5988 39.6765 17.0779L40.044 17.8849C39.7676 17.8022 39.4853 17.741 39.1995 17.7019C30.795 16.7104 23.3085 16.7104 14.8665 17.7019C14.5933 17.745 14.3232 17.8062 14.058 17.8849L14.427 17.0404ZM41.514 34.2904C41.2935 35.5729 40.266 36.5269 38.943 36.7099C36.6315 37.0039 35.052 37.1509 34.3545 37.2244C33.438 37.2994 32.262 36.0139 31.1985 34.8394C29.877 33.4444 28.5555 32.0134 27.0135 32.0134C25.473 32.0134 24.1515 33.4444 22.866 34.8394C21.8025 35.9779 20.5905 37.2994 19.71 37.2244H19.6005C18.0799 37.0864 16.5625 36.9148 15.0495 36.7099C13.7655 36.5629 12.7365 35.5729 12.48 34.2514C12.144 32.1762 11.9724 30.0777 11.967 27.9754C11.967 25.8469 12.1515 23.7169 12.519 21.5884C12.555 21.4414 12.5925 21.3319 12.6285 21.2209L12.885 20.6704C13.113 20.2714 13.4309 19.9309 13.8133 19.676C14.1958 19.4211 14.6324 19.2588 15.0885 19.2019C23.346 18.1744 30.6855 18.1744 39.018 19.1659C39.6398 19.2399 40.2215 19.5115 40.6773 19.9409C41.1331 20.3703 41.439 20.9346 41.55 21.5509C41.9175 23.6794 42.1005 25.8079 42.1005 27.9364C42.0673 30.0663 41.8712 32.1905 41.514 34.2904Z" fill="#7B88D9"/>
<path d="M34.1715 32.0058C32.8602 32.0038 31.6032 31.4819 30.6762 30.5546C29.7491 29.6272 29.2276 28.3701 29.226 27.0588C29.226 24.3318 31.4445 22.1133 34.1715 22.1133C36.8985 22.1133 39.12 24.3318 39.12 27.0588C39.118 28.3705 38.596 29.6278 37.6683 30.5552C36.7407 31.4825 35.4832 32.0042 34.1715 32.0058ZM34.1715 22.8303C33.0507 22.8319 31.9762 23.2779 31.1838 24.0706C30.3914 24.8633 29.9457 25.9379 29.9445 27.0588C29.9457 28.1796 30.3914 29.2542 31.1838 30.0469C31.9762 30.8396 33.0507 31.2857 34.1715 31.2873C35.2929 31.2865 36.3681 30.8408 37.1611 30.048C37.9542 29.2552 38.4003 28.1801 38.4015 27.0588C38.4003 25.9374 37.9542 24.8623 37.1611 24.0696C36.3681 23.2768 35.2929 22.8311 34.1715 22.8303ZM19.8585 32.0058C18.5472 32.0038 17.2902 31.4819 16.3632 30.5546C15.4361 29.6272 14.9146 28.3701 14.913 27.0588C14.9142 25.7475 15.4356 24.4903 16.3628 23.5631C17.29 22.6359 18.5472 22.1145 19.8585 22.1133C21.17 22.1141 22.4276 22.6353 23.3551 23.5626C24.2827 24.4898 24.8043 25.7473 24.8055 27.0588C24.8039 28.3703 24.2822 29.6277 23.3548 30.5551C22.4274 31.4825 21.17 32.0042 19.8585 32.0058ZM19.8585 22.8303C18.7375 22.8319 17.6629 23.2779 16.8702 24.0705C16.0776 24.8632 15.6316 25.9378 15.63 27.0588C15.6308 28.18 16.0765 29.2551 16.8694 30.0479C17.6622 30.8407 18.7373 31.2865 19.8585 31.2873C20.9797 31.2861 22.0547 30.8403 22.8477 30.0476C23.6407 29.2549 24.0869 28.18 24.0885 27.0588C24.0865 25.9377 23.6402 24.8631 22.8473 24.0704C22.0544 23.2778 20.9796 22.8319 19.8585 22.8303Z" fill="#7B88D9"/>
<defs>
<filter id="filter0_d_1095_1118" x="0.434113" y="0.195312" width="54.482" height="54.4819" filterUnits="userSpaceOnUse" color-interpolation-filters="sRGB">
<feFlood flood-opacity="0" result="BackgroundImageFix"/>
<feColorMatrix in="SourceAlpha" type="matrix" values="0 0 0 0 0 0 0 0 0 0 0 0 0 0 0 0 0 0 127 0" result="hardAlpha"/>
<feOffset dx="1" dy="1"/>
<feGaussianBlur stdDeviation="1"/>
<feComposite in2="hardAlpha" operator="out"/>
<feColorMatrix type="matrix" values="0 0 0 0 0 0 0 0 0 0 0 0 0 0 0 0 0 0 0.1 0"/>
<feBlend mode="normal" in2="BackgroundImageFix" result="effect1_dropShadow_1095_1118"/>
<feBlend mode="normal" in="SourceGraphic" in2="effect1_dropShadow_1095_1118" result="shape"/>
</filter>
</defs>
</svg>
