<svg width="56" height="55" viewBox="0 0 56 55" fill="none" xmlns="http://www.w3.org/2000/svg">
<g filter="url(#filter0_d_165_724)">
<circle cx="27.2037" cy="26.7247" r="25.241" fill="white"/>
</g>
<path d="M42.599 36.9499H40.7841V32.2789C40.7841 30.085 38.9996 28.3005 36.8057 28.3005H34.9786V23.2022C34.9786 21.8731 33.8977 20.7925 32.5686 20.7925H22.3226V14.6146C22.3226 13.2854 21.2417 12.2048 19.9126 12.2048H15.1817C14.5892 12.2048 14.1091 12.685 14.1091 13.2777C14.1091 13.8704 14.5893 14.3505 15.182 14.3505H19.9129C20.0586 14.3505 20.1774 14.4693 20.1774 14.6148V25.3747C16.8877 26.4144 14.4935 29.4894 14.4935 33.12C14.4935 37.6013 18.139 41.2467 22.6205 41.2467C27.1018 41.2467 30.7473 37.6013 30.7473 33.12C30.7473 32.1823 30.5835 31.2835 30.2895 30.446H32.8331V34.7622C31.5556 35.1504 30.619 36.3332 30.619 37.7387C30.619 39.4578 32.0174 40.8555 33.7364 40.8555C35.4555 40.8555 36.8533 39.4575 36.8533 37.7387C36.8533 36.4607 36.0775 35.3707 34.9786 34.8906V30.446H36.8057C37.816 30.446 38.6386 31.2684 38.6386 32.2789V36.9599C38.1158 37.0318 37.7134 37.4804 37.7134 38.0227C37.7134 38.6152 38.1938 39.0953 38.786 39.0953H42.599C43.1914 39.0953 43.6719 38.615 43.6719 38.0227C43.6719 37.4303 43.1915 36.9499 42.599 36.9499ZM33.7364 38.7101C33.2008 38.7101 32.7645 38.274 32.7645 37.7387C32.7645 37.2033 33.2006 36.7673 33.7364 36.7673C34.2721 36.7673 34.7078 37.2032 34.7078 37.7387C34.7078 38.2741 34.2718 38.7101 33.7364 38.7101ZM22.6203 39.1013C19.3224 39.1013 16.6387 36.4179 16.6387 33.12C16.6387 29.8221 19.3221 27.1384 22.6203 27.1384C25.9179 27.1384 28.6016 29.8218 28.6016 33.12C28.6016 36.4179 25.9182 39.1013 22.6203 39.1013ZM32.8331 28.3005H29.1512C27.6706 26.2991 25.2979 24.9929 22.6203 24.9929C22.5196 24.9929 22.4199 24.9972 22.3226 25.003V22.938H32.5686C32.7143 22.938 32.8331 23.0567 32.8331 23.2022V28.3005Z" fill="#7B88D9" stroke="#7B88D9" stroke-width="0.5"/>
<defs>
<filter id="filter0_d_165_724" x="0.962646" y="0.483643" width="54.4821" height="54.4821" filterUnits="userSpaceOnUse" color-interpolation-filters="sRGB">
<feFlood flood-opacity="0" result="BackgroundImageFix"/>
<feColorMatrix in="SourceAlpha" type="matrix" values="0 0 0 0 0 0 0 0 0 0 0 0 0 0 0 0 0 0 127 0" result="hardAlpha"/>
<feOffset dx="1" dy="1"/>
<feGaussianBlur stdDeviation="1"/>
<feComposite in2="hardAlpha" operator="out"/>
<feColorMatrix type="matrix" values="0 0 0 0 0 0 0 0 0 0 0 0 0 0 0 0 0 0 0.1 0"/>
<feBlend mode="normal" in2="BackgroundImageFix" result="effect1_dropShadow_165_724"/>
<feBlend mode="normal" in="SourceGraphic" in2="effect1_dropShadow_165_724" result="shape"/>
</filter>
</defs>
</svg>
