<svg width="396" height="181" viewBox="0 0 396 181" fill="none" xmlns="http://www.w3.org/2000/svg">
<mask id="mask0_946_2731" style="mask-type:alpha" maskUnits="userSpaceOnUse" x="0" y="0" width="396" height="181">
<path d="M0 10C0 4.47715 4.47715 0 10 0H385.848C391.371 0 395.848 4.47715 395.848 10V180.36H0V10Z" fill="#5A6ACF"/>
</mask>
<g mask="url(#mask0_946_2731)">
<path d="M0 10C0 4.47715 4.47715 0 10 0H385.848C391.371 0 395.848 4.47715 395.848 10V180.36H0V10Z" fill="#5A6ACF"/>
<g opacity="0.4">
<path d="M316.146 13.1169C316.146 13.1169 303.366 10.0195 295.631 28.7321C289.185 44.3298 284.612 52.6595 289.845 58.3176C291.717 60.3417 294.389 61.4325 297.142 61.5258L326.599 62.4941C326.599 62.4941 337.414 34.1336 330.84 23.879C324.266 13.6185 316.146 13.1169 316.146 13.1169Z" fill="#2F2E41"/>
<path d="M322.247 60.1375L308.079 64.7981V44.3998H320.935L322.247 60.1375Z" fill="#F6A6A9"/>
<path d="M345.177 133.127H280.687L303.867 56.8362H329.58L345.177 133.127Z" fill="#DDDEDF"/>
<path d="M278.931 175.936C278.161 180.609 275.046 183.963 271.972 183.42C268.898 182.878 267.026 178.655 267.796 173.982C268.076 172.11 268.816 170.342 269.954 168.82L273.465 149.063L283.026 151.064L278.546 170.325C279.135 172.145 279.269 174.07 278.937 175.936H278.931Z" fill="#F6A6A9"/>
<path d="M307.927 56.8478C307.927 56.8478 291.91 56.4278 290.224 60.6393C288.538 64.8566 268.729 165.174 268.729 165.174H281.795L307.927 56.8478Z" fill="#DDDEDF"/>
<path d="M311.328 49.2179C319.127 49.2179 325.45 42.8953 325.45 35.0959C325.45 27.2966 319.127 20.974 311.328 20.974C303.529 20.974 297.206 27.2966 297.206 35.0959C297.206 42.8953 303.529 49.2179 311.328 49.2179Z" fill="#F6A6A9"/>
<path d="M313.544 17.7776C313.544 17.7776 295.415 44.744 298.466 61.5666L287.92 54.9577C287.92 54.9577 295.345 20.9041 306.411 18.2617L313.544 17.7717V17.7776Z" fill="#2F2E41"/>
<path d="M331.773 133.127H289.454L266.296 228.166C265.871 232.179 268.414 235.924 272.316 236.968C285.021 240.369 315.504 245.193 361.65 231.765C366.089 230.476 368.609 225.792 367.215 221.382L331.773 133.133V133.127Z" fill="#2F2E41"/>
<path d="M274.696 70.3689L274.404 70.0772L274.113 70.3689C259.921 56.1886 236.921 56.2061 222.741 70.398C208.56 84.5958 208.274 107.882 222.466 122.062L274.439 173.982L326.377 121.998C340.558 107.8 340.26 84.5141 326.074 70.3339C311.882 56.1536 288.882 56.1711 274.702 70.363L274.696 70.3689Z" fill="#9CB7F8"/>
<path d="M313.078 63.9757L324.802 57.9618C330.163 55.9785 336.142 56.6435 340.937 59.7642C355.519 69.2488 384.265 90.1605 371.91 100.497C355.63 114.123 333.622 89.9563 333.622 89.9563L313.078 63.9757Z" fill="#DDDEDF"/>
<path d="M312.821 74.2536C308.744 71.8504 306.743 67.7322 308.359 65.0548C309.975 62.3832 314.589 62.1674 318.672 64.5707C320.317 65.5098 321.699 66.8397 322.702 68.4497L339.852 78.8676L334.532 87.0573L318.188 75.916C316.274 75.8052 314.431 75.2336 312.815 74.2478H312.821V74.2536Z" fill="#F6A6A9"/>
<path d="M324.476 83.6974L329.352 72.0487L353.18 79.9351L342.523 97.6735L324.476 83.6974Z" fill="#DDDEDF"/>
</g>
<path d="M26.8821 38.0911H29.2581L31.6701 47.8651H31.7421L34.2801 38.0911H36.4581L38.9961 47.8651H39.0681L41.4801 38.0911H43.8561L40.1481 50.9431H37.9161L35.4141 41.2771H35.3421L32.8221 50.9431H30.5721L26.8821 38.0911ZM48.9884 41.3851C50.5244 41.3851 51.6944 41.9011 52.4984 42.9331C53.2424 43.8811 53.6144 45.1891 53.6144 46.8571H46.6484C46.7204 47.7331 46.9544 48.3931 47.3504 48.8371C47.7464 49.2931 48.3164 49.5211 49.0604 49.5211C49.6844 49.5211 50.1944 49.3771 50.5904 49.0891C50.8904 48.8611 51.1664 48.4831 51.4184 47.9551H53.4704C53.2544 48.8311 52.8224 49.5571 52.1744 50.1331C51.3344 50.8411 50.3024 51.1951 49.0784 51.1951C47.6984 51.1951 46.6004 50.7691 45.7844 49.9171C44.9204 49.0291 44.4884 47.8171 44.4884 46.2811C44.4884 44.8891 44.8964 43.7311 45.7124 42.8071C46.5044 41.8591 47.5964 41.3851 48.9884 41.3851ZM49.0424 43.0591C48.3584 43.0591 47.8244 43.2511 47.4404 43.6351C47.0684 44.0071 46.8164 44.5651 46.6844 45.3091H51.4724C51.2924 43.8091 50.4824 43.0591 49.0424 43.0591ZM55.4213 37.8391H57.4733V50.9431H55.4213V37.8391ZM63.9876 41.3851C65.1876 41.3851 66.1476 41.6551 66.8676 42.1951C67.6116 42.7831 68.0736 43.6531 68.2536 44.8051H66.2196C66.0996 44.2291 65.8536 43.7911 65.4816 43.4911C65.1096 43.2031 64.6116 43.0591 63.9876 43.0591C63.2196 43.0591 62.6256 43.3411 62.2056 43.9051C61.7736 44.4571 61.5576 45.2431 61.5576 46.2631C61.5576 47.3071 61.7676 48.1111 62.1876 48.6751C62.5836 49.2391 63.1776 49.5211 63.9696 49.5211C65.3256 49.5211 66.0876 48.8431 66.2556 47.4871H68.2896C68.0736 48.7471 67.5936 49.6831 66.8496 50.2951C66.1176 50.8951 65.1516 51.1951 63.9516 51.1951C62.5116 51.1951 61.3956 50.7271 60.6036 49.7911C59.8356 48.9031 59.4516 47.7331 59.4516 46.2811C59.4516 44.8651 59.8296 43.7191 60.5856 42.8431C61.4016 41.8711 62.5356 41.3851 63.9876 41.3851ZM74.2214 41.3851C75.6374 41.3851 76.7714 41.8471 77.6234 42.7711C78.4754 43.6951 78.9014 44.8711 78.9014 46.2991C78.9014 47.7151 78.4814 48.8791 77.6414 49.7911C76.7774 50.7271 75.6374 51.1951 74.2214 51.1951C72.8054 51.1951 71.6654 50.7271 70.8014 49.7911C69.9614 48.9031 69.5414 47.7391 69.5414 46.2991C69.5414 44.8471 69.9674 43.6711 70.8194 42.7711C71.6594 41.8471 72.7934 41.3851 74.2214 41.3851ZM74.2214 43.0591C73.3574 43.0591 72.6974 43.3951 72.2414 44.0671C71.8454 44.6431 71.6474 45.3871 71.6474 46.2991C71.6474 47.1991 71.8454 47.9371 72.2414 48.5131C72.7094 49.1851 73.3694 49.5211 74.2214 49.5211C75.0734 49.5211 75.7334 49.1851 76.2014 48.5131C76.6094 47.9011 76.8134 47.1631 76.8134 46.2991C76.8134 45.3991 76.6094 44.6551 76.2014 44.0671C75.7454 43.3951 75.0854 43.0591 74.2214 43.0591ZM85.2664 41.3851C86.6344 41.3851 87.6124 41.8891 88.2004 42.8971C88.6324 42.3211 89.0824 41.9251 89.5504 41.7091C89.9704 41.4931 90.4924 41.3851 91.1164 41.3851C92.0764 41.3851 92.8744 41.7031 93.5104 42.3391C94.1344 42.9991 94.4464 43.8331 94.4464 44.8411V50.9431H92.3944V45.2011C92.3944 44.4691 92.2384 43.9351 91.9264 43.5991C91.6024 43.2631 91.0864 43.0951 90.3784 43.0951C89.8744 43.0951 89.4544 43.2871 89.1184 43.6711C88.7704 44.0311 88.5964 44.5591 88.5964 45.2551V50.9431H86.5444V45.2191C86.5444 43.8031 85.9324 43.0951 84.7084 43.0951C84.1084 43.0951 83.6344 43.3231 83.2864 43.7791C82.9264 44.2111 82.7464 44.7391 82.7464 45.3631V50.9431H80.6944V41.6371H82.7464V42.5911C83.5144 41.7871 84.3544 41.3851 85.2664 41.3851ZM100.563 41.3851C102.099 41.3851 103.269 41.9011 104.073 42.9331C104.817 43.8811 105.189 45.1891 105.189 46.8571H98.2226C98.2946 47.7331 98.5286 48.3931 98.9246 48.8371C99.3206 49.2931 99.8906 49.5211 100.635 49.5211C101.259 49.5211 101.769 49.3771 102.165 49.0891C102.465 48.8611 102.741 48.4831 102.993 47.9551H105.045C104.829 48.8311 104.397 49.5571 103.749 50.1331C102.909 50.8411 101.877 51.1951 100.653 51.1951C99.2726 51.1951 98.1746 50.7691 97.3586 49.9171C96.4946 49.0291 96.0626 47.8171 96.0626 46.2811C96.0626 44.8891 96.4706 43.7311 97.2866 42.8071C98.0786 41.8591 99.1706 41.3851 100.563 41.3851ZM100.617 43.0591C99.9326 43.0591 99.3986 43.2511 99.0146 43.6351C98.6426 44.0071 98.3906 44.5651 98.2586 45.3091H103.047C102.867 43.8091 102.057 43.0591 100.617 43.0591ZM107.517 38.0911H109.947L109.497 47.2531H107.967L107.517 38.0911ZM108.723 48.2251C109.131 48.2251 109.467 48.3511 109.731 48.6031C109.995 48.8671 110.127 49.1911 110.127 49.5751C110.127 49.9711 109.995 50.3011 109.731 50.5651C109.443 50.8171 109.107 50.9431 108.723 50.9431C108.339 50.9431 108.015 50.8111 107.751 50.5471C107.475 50.3071 107.337 49.9831 107.337 49.5751C107.337 49.1671 107.475 48.8431 107.751 48.6031C108.003 48.3511 108.327 48.2251 108.723 48.2251ZM33.6321 63.8391C35.1561 63.8391 36.4041 64.2351 37.3761 65.0271C38.3001 65.7711 38.8641 66.8031 39.0681 68.1231H37.0161C36.8001 67.2831 36.3981 66.6651 35.8101 66.2691C35.2461 65.8851 34.5081 65.6931 33.5961 65.6931C32.2401 65.6931 31.2261 66.1551 30.5541 67.0791C29.9301 67.8951 29.6181 69.0471 29.6181 70.5351C29.6181 72.0471 29.9241 73.2111 30.5361 74.0271C31.2081 74.9031 32.2461 75.3411 33.6501 75.3411C34.5621 75.3411 35.3121 75.1191 35.9001 74.6751C36.5121 74.1951 36.9441 73.4631 37.1961 72.4791H39.2481C38.9601 73.9911 38.2881 75.1671 37.2321 76.0071C36.2481 76.7991 35.0601 77.1951 33.6681 77.1951C31.5321 77.1951 29.9361 76.5231 28.8801 75.1791C27.9681 74.0391 27.5121 72.4911 27.5121 70.5351C27.5121 68.6031 27.9861 67.0491 28.9341 65.8731C30.0021 64.5171 31.5681 63.8391 33.6321 63.8391ZM41.0557 63.8391H43.1077V68.8791C43.4437 68.3751 43.8697 67.9911 44.3857 67.7271C44.8297 67.4991 45.3517 67.3851 45.9517 67.3851C47.0917 67.3851 47.9377 67.7151 48.4897 68.3751C49.0177 69.0111 49.2817 69.9471 49.2817 71.1831V76.9431H47.2297V71.5431C47.2297 70.7511 47.0737 70.1451 46.7617 69.7251C46.4017 69.2811 45.8737 69.0591 45.1777 69.0591C44.5297 69.0591 44.0257 69.3111 43.6657 69.8151C43.2937 70.3071 43.1077 70.9491 43.1077 71.7411V76.9431H41.0557V63.8391ZM55.4044 67.3851C56.9404 67.3851 58.1104 67.9011 58.9144 68.9331C59.6584 69.8811 60.0304 71.1891 60.0304 72.8571H53.0644C53.1364 73.7331 53.3704 74.3931 53.7664 74.8371C54.1624 75.2931 54.7324 75.5211 55.4764 75.5211C56.1004 75.5211 56.6104 75.3771 57.0064 75.0891C57.3064 74.8611 57.5824 74.4831 57.8344 73.9551H59.8864C59.6704 74.8311 59.2384 75.5571 58.5904 76.1331C57.7504 76.8411 56.7184 77.1951 55.4944 77.1951C54.1144 77.1951 53.0164 76.7691 52.2004 75.9171C51.3364 75.0291 50.9044 73.8171 50.9044 72.2811C50.9044 70.8891 51.3124 69.7311 52.1284 68.8071C52.9204 67.8591 54.0124 67.3851 55.4044 67.3851ZM55.4584 69.0591C54.7744 69.0591 54.2404 69.2511 53.8564 69.6351C53.4844 70.0071 53.2324 70.5651 53.1004 71.3091H57.8884C57.7084 69.8091 56.8984 69.0591 55.4584 69.0591ZM65.6173 67.3851C67.1533 67.3851 68.3233 67.9011 69.1273 68.9331C69.8713 69.8811 70.2433 71.1891 70.2433 72.8571H63.2773C63.3493 73.7331 63.5833 74.3931 63.9793 74.8371C64.3753 75.2931 64.9453 75.5211 65.6893 75.5211C66.3133 75.5211 66.8233 75.3771 67.2193 75.0891C67.5193 74.8611 67.7953 74.4831 68.0473 73.9551H70.0993C69.8833 74.8311 69.4513 75.5571 68.8033 76.1331C67.9633 76.8411 66.9313 77.1951 65.7073 77.1951C64.3273 77.1951 63.2293 76.7691 62.4133 75.9171C61.5493 75.0291 61.1173 73.8171 61.1173 72.2811C61.1173 70.8891 61.5253 69.7311 62.3413 68.8071C63.1333 67.8591 64.2253 67.3851 65.6173 67.3851ZM65.6713 69.0591C64.9873 69.0591 64.4533 69.2511 64.0693 69.6351C63.6973 70.0071 63.4453 70.5651 63.3133 71.3091H68.1013C67.9213 69.8091 67.1113 69.0591 65.6713 69.0591ZM76.2622 67.3851C76.7302 67.3851 77.1202 67.4631 77.4322 67.6191V69.6711C77.0002 69.5391 76.5562 69.4731 76.1002 69.4731C75.5482 69.4731 75.0622 69.6831 74.6422 70.1031C74.1502 70.5831 73.9042 71.2191 73.9042 72.0111V76.9431H71.8702V67.6371H73.9042V68.9691C74.1562 68.4891 74.4502 68.1291 74.7862 67.8891C75.1942 67.5531 75.6862 67.3851 76.2622 67.3851ZM88.9167 67.3851C90.3327 67.3851 91.4667 67.8471 92.3187 68.7711C93.1707 69.6951 93.5967 70.8711 93.5967 72.2991C93.5967 73.7151 93.1767 74.8791 92.3367 75.7911C91.4727 76.7271 90.3327 77.1951 88.9167 77.1951C87.5007 77.1951 86.3607 76.7271 85.4967 75.7911C84.6567 74.9031 84.2367 73.7391 84.2367 72.2991C84.2367 70.8471 84.6627 69.6711 85.5147 68.7711C86.3547 67.8471 87.4887 67.3851 88.9167 67.3851ZM88.9167 69.0591C88.0527 69.0591 87.3927 69.3951 86.9367 70.0671C86.5407 70.6431 86.3427 71.3871 86.3427 72.2991C86.3427 73.1991 86.5407 73.9371 86.9367 74.5131C87.4047 75.1851 88.0647 75.5211 88.9167 75.5211C89.7687 75.5211 90.4287 75.1851 90.8967 74.5131C91.3047 73.9011 91.5087 73.1631 91.5087 72.2991C91.5087 71.3991 91.3047 70.6551 90.8967 70.0671C90.4407 69.3951 89.7807 69.0591 88.9167 69.0591ZM100.196 67.3851C102.524 67.3851 103.688 68.6571 103.688 71.2011V76.9431H101.636V71.3811C101.636 69.8571 100.934 69.0951 99.5297 69.0951C99.0257 69.0951 98.5817 69.2751 98.1977 69.6351C97.7657 70.0311 97.5137 70.6011 97.4417 71.3451V76.9431H95.3897V67.6371H97.4417V68.7171C97.8137 68.2731 98.2217 67.9431 98.6657 67.7271C99.1217 67.4991 99.6317 67.3851 100.196 67.3851ZM117.081 64.0911H119.187V72.7851C119.187 74.2491 118.881 75.3411 118.269 76.0611C117.585 76.8171 116.499 77.1951 115.011 77.1951C113.715 77.1951 112.731 76.8351 112.059 76.1151C111.375 75.3951 111.033 74.4051 111.033 73.1451V72.7311H113.139V73.1271C113.139 74.6031 113.775 75.3411 115.047 75.3411C115.755 75.3411 116.271 75.1311 116.595 74.7111C116.919 74.2911 117.081 73.6251 117.081 72.7131V64.0911ZM125.758 67.3851C127.138 67.3851 128.152 67.7271 128.8 68.4111C129.376 68.9991 129.664 69.8631 129.664 71.0031V76.9431H127.756V75.7191C127.396 76.1871 126.946 76.5471 126.406 76.7991C125.782 77.0631 125.086 77.1951 124.318 77.1951C123.358 77.1951 122.596 76.9491 122.032 76.4571C121.456 75.9531 121.168 75.2811 121.168 74.4411C121.168 73.2771 121.624 72.4071 122.536 71.8311C123.304 71.3391 124.318 71.0931 125.578 71.0931L127.612 71.0751V70.8591C127.612 69.6471 126.946 69.0411 125.614 69.0411C125.002 69.0411 124.522 69.1551 124.174 69.3831C123.778 69.6351 123.544 70.0191 123.472 70.5351H121.438C121.582 69.4071 122.056 68.5851 122.86 68.0691C123.544 67.6131 124.51 67.3851 125.758 67.3851ZM127.612 72.6411L125.722 72.6591C124.09 72.6591 123.274 73.2351 123.274 74.3871C123.274 74.7111 123.4 74.9931 123.652 75.2331C123.916 75.4611 124.294 75.5751 124.786 75.5751C125.638 75.5751 126.328 75.3471 126.856 74.8911C127.36 74.4231 127.612 73.7991 127.612 73.0191V72.6411ZM136.005 67.3851C137.205 67.3851 138.165 67.6551 138.885 68.1951C139.629 68.7831 140.091 69.6531 140.271 70.8051H138.237C138.117 70.2291 137.871 69.7911 137.499 69.4911C137.127 69.2031 136.629 69.0591 136.005 69.0591C135.237 69.0591 134.643 69.3411 134.223 69.9051C133.791 70.4571 133.575 71.2431 133.575 72.2631C133.575 73.3071 133.785 74.1111 134.205 74.6751C134.601 75.2391 135.195 75.5211 135.987 75.5211C137.343 75.5211 138.105 74.8431 138.273 73.4871H140.307C140.091 74.7471 139.611 75.6831 138.867 76.2951C138.135 76.8951 137.169 77.1951 135.969 77.1951C134.529 77.1951 133.413 76.7271 132.621 75.7911C131.853 74.9031 131.469 73.7331 131.469 72.2811C131.469 70.8651 131.847 69.7191 132.603 68.8431C133.419 67.8711 134.553 67.3851 136.005 67.3851ZM141.919 63.8391H143.971V71.3271L147.787 67.6371H150.433L146.311 71.4891L150.793 76.9431H148.165L144.907 72.8031L143.971 73.6851V76.9431H141.919V63.8391ZM162.254 67.3851C162.722 67.3851 163.112 67.4631 163.424 67.6191V69.6711C162.992 69.5391 162.548 69.4731 162.092 69.4731C161.54 69.4731 161.054 69.6831 160.634 70.1031C160.142 70.5831 159.896 71.2191 159.896 72.0111V76.9431H157.862V67.6371H159.896V68.9691C160.148 68.4891 160.442 68.1291 160.778 67.8891C161.186 67.5531 161.678 67.3851 162.254 67.3851ZM165.981 63.8391C166.389 63.8391 166.725 63.9651 166.989 64.2171C167.253 64.4811 167.385 64.8051 167.385 65.1891C167.385 65.5971 167.247 65.9271 166.971 66.1791C166.707 66.4311 166.377 66.5571 165.981 66.5571C165.597 66.5571 165.267 66.4311 164.991 66.1791C164.727 65.9151 164.595 65.5851 164.595 65.1891C164.595 64.7931 164.727 64.4691 164.991 64.2171C165.267 63.9651 165.597 63.8391 165.981 63.8391ZM164.955 67.6371H167.007V76.9431H164.955V67.6371ZM173.422 67.3851C174.586 67.3851 175.504 67.8471 176.176 68.7711V67.6371H178.228V76.3491C178.228 79.2891 176.77 80.7591 173.854 80.7591C172.558 80.7591 171.562 80.5191 170.866 80.0391C170.182 79.5351 169.75 78.7671 169.57 77.7351H171.622C171.73 78.2511 171.952 78.6171 172.288 78.8331C172.624 79.0371 173.146 79.1391 173.854 79.1391C175.402 79.1391 176.176 78.3111 176.176 76.6551V75.2871C175.492 76.2471 174.574 76.7271 173.422 76.7271C172.162 76.7271 171.142 76.3071 170.362 75.4671C169.582 74.6391 169.192 73.5111 169.192 72.0831C169.192 70.6671 169.582 69.5331 170.362 68.6811C171.142 67.8171 172.162 67.3851 173.422 67.3851ZM173.746 69.0411C172.978 69.0411 172.378 69.3111 171.946 69.8511C171.514 70.3671 171.298 71.1111 171.298 72.0831C171.298 72.9711 171.466 73.6611 171.802 74.1531C172.198 74.7531 172.84 75.0531 173.728 75.0531C174.508 75.0531 175.12 74.7951 175.564 74.2791C175.984 73.7271 176.194 72.9951 176.194 72.0831C176.194 71.1471 175.984 70.4031 175.564 69.8511C175.132 69.3111 174.526 69.0411 173.746 69.0411ZM180.38 63.8391H182.432V68.8791C182.768 68.3751 183.194 67.9911 183.71 67.7271C184.154 67.4991 184.676 67.3851 185.276 67.3851C186.416 67.3851 187.262 67.7151 187.814 68.3751C188.342 69.0111 188.606 69.9471 188.606 71.1831V76.9431H186.554V71.5431C186.554 70.7511 186.398 70.1451 186.086 69.7251C185.726 69.2811 185.198 69.0591 184.502 69.0591C183.854 69.0591 183.35 69.3111 182.99 69.8151C182.618 70.3071 182.432 70.9491 182.432 71.7411V76.9431H180.38V63.8391ZM193.685 64.6311V67.6371H195.755V69.3291H193.685V74.5851C193.685 74.8131 193.733 74.9811 193.829 75.0891C193.937 75.1971 194.093 75.2511 194.297 75.2511H195.521V76.9431H193.955C193.151 76.9431 192.557 76.7271 192.173 76.2951C191.813 75.8991 191.633 75.3291 191.633 74.5851V69.3291H189.959V67.6371H191.633V65.4771L193.685 64.6311ZM203.284 63.8391H205.336V68.8791C205.672 68.3751 206.098 67.9911 206.614 67.7271C207.058 67.4991 207.58 67.3851 208.18 67.3851C209.32 67.3851 210.166 67.7151 210.718 68.3751C211.246 69.0111 211.51 69.9471 211.51 71.1831V76.9431H209.458V71.5431C209.458 70.7511 209.302 70.1451 208.99 69.7251C208.63 69.2811 208.102 69.0591 207.406 69.0591C206.758 69.0591 206.254 69.3111 205.894 69.8151C205.522 70.3071 205.336 70.9491 205.336 71.7411V76.9431H203.284V63.8391ZM217.633 67.3851C219.169 67.3851 220.339 67.9011 221.143 68.9331C221.887 69.8811 222.259 71.1891 222.259 72.8571H215.293C215.365 73.7331 215.599 74.3931 215.995 74.8371C216.391 75.2931 216.961 75.5211 217.705 75.5211C218.329 75.5211 218.839 75.3771 219.235 75.0891C219.535 74.8611 219.811 74.4831 220.063 73.9551H222.115C221.899 74.8311 221.467 75.5571 220.819 76.1331C219.979 76.8411 218.947 77.1951 217.723 77.1951C216.343 77.1951 215.245 76.7691 214.429 75.9171C213.565 75.0291 213.133 73.8171 213.133 72.2811C213.133 70.8891 213.541 69.7311 214.357 68.8071C215.149 67.8591 216.241 67.3851 217.633 67.3851ZM217.687 69.0591C217.003 69.0591 216.469 69.2511 216.085 69.6351C215.713 70.0071 215.461 70.5651 215.329 71.3091H220.117C219.937 69.8091 219.127 69.0591 217.687 69.0591ZM228.278 67.3851C228.746 67.3851 229.136 67.4631 229.448 67.6191V69.6711C229.016 69.5391 228.572 69.4731 228.116 69.4731C227.564 69.4731 227.078 69.6831 226.658 70.1031C226.166 70.5831 225.92 71.2191 225.92 72.0111V76.9431H223.886V67.6371H225.92V68.9691C226.172 68.4891 226.466 68.1291 226.802 67.8891C227.21 67.5531 227.702 67.3851 228.278 67.3851ZM234.578 67.3851C236.114 67.3851 237.284 67.9011 238.088 68.9331C238.832 69.8811 239.204 71.1891 239.204 72.8571H232.238C232.31 73.7331 232.544 74.3931 232.94 74.8371C233.336 75.2931 233.906 75.5211 234.65 75.5211C235.274 75.5211 235.784 75.3771 236.18 75.0891C236.48 74.8611 236.756 74.4831 237.008 73.9551H239.06C238.844 74.8311 238.412 75.5571 237.764 76.1331C236.924 76.8411 235.892 77.1951 234.668 77.1951C233.288 77.1951 232.19 76.7691 231.374 75.9171C230.51 75.0291 230.078 73.8171 230.078 72.2811C230.078 70.8891 230.486 69.7311 231.302 68.8071C232.094 67.8591 233.186 67.3851 234.578 67.3851ZM234.632 69.0591C233.948 69.0591 233.414 69.2511 233.03 69.6351C232.658 70.0071 232.406 70.5651 232.274 71.3091H237.062C236.882 69.8091 236.072 69.0591 234.632 69.0591Z" fill="white"/>
</g>
</svg>
