<svg width="25" height="25" viewBox="0 0 25 25" fill="none" xmlns="http://www.w3.org/2000/svg">
<g clip-path="url(#clip0_248_1469)">
<path d="M14.0914 2.61907C14.5683 2.616 15.0319 2.77638 15.405 3.07351C15.7781 3.37064 16.0381 3.78659 16.1419 4.25211L17.1619 8.79907C17.1783 8.88064 17.2173 8.95594 17.2745 9.01638C17.3317 9.07681 17.4048 9.11993 17.4853 9.1408L21.9932 10.3199C22.3937 10.4226 22.7546 10.642 23.0303 10.9502C23.3059 11.2583 23.4838 11.6414 23.5414 12.0509C23.599 12.4603 23.5336 12.8776 23.3536 13.2499C23.1737 13.6221 22.8872 13.9325 22.5305 14.1417L18.521 16.5182C18.4504 16.5596 18.3928 16.6199 18.3546 16.6922C18.3163 16.7646 18.299 16.8461 18.3045 16.9278L18.5653 21.5791C18.5832 21.8639 18.5424 22.1494 18.4455 22.4178C18.3487 22.6863 18.1978 22.932 18.0022 23.1398C17.8066 23.3477 17.5704 23.5132 17.3083 23.6261C17.0462 23.739 16.7638 23.797 16.4784 23.7965C15.9732 23.7972 15.4855 23.6114 15.1088 23.2747L11.6079 20.1938C11.5269 20.1214 11.4219 20.0814 11.3132 20.0817C11.2577 20.0817 11.2028 20.0924 11.1514 20.113L6.81316 21.8086C6.56386 21.9066 6.29841 21.9571 6.03055 21.9573C5.68384 21.9567 5.34273 21.8698 5.03805 21.7043C4.73337 21.5389 4.47471 21.3001 4.28545 21.0096C4.09618 20.7191 3.98228 20.386 3.95402 20.0405C3.92576 19.6949 3.98404 19.3478 4.12359 19.0304L5.96794 14.7547C6.00043 14.6792 6.01153 14.5961 6.00003 14.5147C5.98852 14.4333 5.95486 14.3566 5.90272 14.293L2.9575 10.6904C2.70522 10.3855 2.54482 10.0151 2.49503 9.62253C2.44523 9.22994 2.50809 8.83128 2.67626 8.47305C2.84444 8.11482 3.111 7.81179 3.44486 7.59931C3.77872 7.38683 4.16611 7.27365 4.56185 7.27298C4.63136 7.26914 4.70104 7.26914 4.77055 7.27298L9.40881 7.70602H9.45055C9.52256 7.70612 9.5935 7.68857 9.65717 7.65492C9.72083 7.62127 9.77528 7.57254 9.81576 7.51298L12.3305 3.59994C12.5147 3.29865 12.7736 3.05004 13.0821 2.87819C13.3906 2.70635 13.7383 2.61709 14.0914 2.61907ZM14.0914 2.09733C13.6532 2.09499 13.2218 2.20533 12.8385 2.41775C12.4552 2.63018 12.133 2.93755 11.9027 3.31037L9.41142 7.19472L4.82011 6.76428C4.73403 6.76428 4.64533 6.75124 4.55924 6.75124C4.06497 6.75265 3.58127 6.89446 3.16447 7.16014C2.74768 7.42583 2.41494 7.80445 2.205 8.25193C1.99507 8.69941 1.91658 9.19732 1.97868 9.68767C2.04078 10.178 2.24091 10.6407 2.55576 11.0217L5.48011 14.5904L3.65403 18.8243C3.47853 19.2191 3.40565 19.6519 3.44213 20.0824C3.47862 20.5129 3.62329 20.9272 3.86272 21.2869C4.18696 21.7915 4.67643 22.1678 5.24744 22.3515C5.81844 22.5352 6.43552 22.5148 6.99316 22.2938L11.2975 20.6191L14.7723 23.6634C15.2434 24.0854 15.8537 24.3185 16.4862 24.3182C16.8449 24.3165 17.1995 24.2422 17.5286 24.0996C17.8577 23.957 18.1545 23.7492 18.401 23.4886C18.6438 23.2306 18.831 22.9254 18.9508 22.5919C19.0706 22.2585 19.1206 21.9039 19.0975 21.5504L18.8366 16.946L22.8071 14.5982C23.2527 14.3366 23.6105 13.9485 23.8352 13.4832C24.06 13.0179 24.1414 12.4963 24.0693 11.9847C23.9972 11.473 23.7748 10.9943 23.4303 10.6092C23.0857 10.2241 22.6346 9.95 22.134 9.82167L17.6601 8.64776L16.6505 4.14776C16.5228 3.56483 16.1991 3.0433 15.7334 2.67017C15.2677 2.29703 14.6882 2.09484 14.0914 2.09733Z" fill="#FFD652"/>
<path d="M12.5319 13.5991L2.71533 8.3817C2.90342 8.01607 3.19761 7.71582 3.55931 7.5203C3.92102 7.32479 4.33337 7.24313 4.74229 7.28605L9.28142 7.70865C9.40236 7.72116 9.52437 7.69946 9.63359 7.64605L12.5319 13.5991Z" fill="#FFCD69"/>
<path d="M14.4674 2.63732L12.5343 13.5938L9.63086 7.64079C9.73759 7.58658 9.82772 7.50456 9.89173 7.4034L12.3517 3.5634C12.5711 3.2149 12.89 2.94029 13.2672 2.77517C13.6444 2.61005 14.0625 2.56203 14.4674 2.63732Z" fill="#FFC952"/>
<path d="M17.3029 8.99207L12.5342 13.5964L14.4672 2.63989C14.8727 2.70722 15.2485 2.895 15.5458 3.1788C15.8431 3.46261 16.0481 3.8293 16.1342 4.2312L17.1333 8.68163C17.1599 8.79885 17.2186 8.90635 17.3029 8.99207Z" fill="#FFC248"/>
<path d="M23.5533 12.0521L12.5342 13.599L17.3029 8.99207C17.3869 9.07861 17.4921 9.14158 17.6081 9.17467L22.0246 10.3277C22.4235 10.4276 22.783 10.6457 23.0558 10.9534C23.3286 11.2611 23.502 11.6441 23.5533 12.0521ZM22.5594 14.126L18.6359 16.4451C18.5248 16.504 18.434 16.5949 18.375 16.706L12.5368 13.6068L23.5559 12.0599C23.6165 12.4645 23.5538 12.878 23.3761 13.2465C23.1983 13.615 22.9137 13.9215 22.5594 14.126Z" fill="#FFC536"/>
<path d="M17.41 23.6034C17.0423 23.7846 16.6288 23.8519 16.2226 23.7966C15.8164 23.7413 15.436 23.5659 15.13 23.293L11.7074 20.2799C11.6158 20.198 11.5027 20.1437 11.3813 20.1234L12.5318 13.6017L17.41 23.6034Z" fill="#F7A116"/>
<path d="M12.5344 13.6017L11.3814 20.1234C11.262 20.1029 11.1393 20.1156 11.0266 20.1599L6.78223 21.8191C6.40045 21.9725 5.98132 22.0076 5.57935 21.9196C5.17738 21.8317 4.81117 21.6249 4.52832 21.326L12.5292 13.6017H12.5344Z" fill="#F99C15"/>
<path d="M12.5288 13.6017L4.52794 21.326C4.23909 21.0324 4.04549 20.6585 3.97242 20.2532C3.89936 19.8478 3.95022 19.4299 4.11837 19.0539L5.9262 14.8799C5.97397 14.7682 5.99021 14.6455 5.97316 14.5252L12.5288 13.6017Z" fill="#FFB727"/>
<path d="M12.5292 13.6017L5.97356 14.5199C5.95726 14.3992 5.90757 14.2853 5.83008 14.1912L2.93965 10.6669C2.676 10.3522 2.51333 9.96527 2.47285 9.55669C2.43236 9.14812 2.51594 8.73683 2.71269 8.37646L12.5292 13.6017ZM12.5318 13.6027L12.5321 13.6001L12.5347 13.6006L12.5342 13.6032L12.5318 13.6027Z" fill="#FFC536"/>
<path d="M17.4097 23.6035L12.5366 13.6069L18.3853 16.7061C18.33 16.8111 18.3047 16.9293 18.3123 17.0478L18.5731 21.6C18.6045 22.0124 18.5102 22.4247 18.3024 22.7823C18.0947 23.14 17.7834 23.4263 17.4097 23.6035Z" fill="#FFB727"/>
<path d="M11.55 7.17675C11.6033 7.21581 11.6721 7.23275 11.7522 7.22662C11.8324 7.22048 11.9225 7.19138 12.0173 7.14099C12.1121 7.09059 12.2098 7.01988 12.3048 6.93289C12.3998 6.84591 12.4902 6.74436 12.571 6.63403C12.6517 6.5237 12.7211 6.40676 12.7752 6.28989C12.8294 6.17302 12.8672 6.05851 12.8865 5.95289C12.9059 5.84728 12.9064 5.75262 12.8879 5.67434C12.8695 5.59606 12.8325 5.53568 12.7792 5.49665C12.7258 5.45759 12.6571 5.44065 12.5769 5.44678C12.4967 5.45292 12.4066 5.48202 12.3118 5.53241C12.217 5.58281 12.1193 5.65352 12.0243 5.7405C11.9293 5.82749 11.8389 5.92904 11.7582 6.03937C11.6775 6.1497 11.608 6.26663 11.5539 6.3835C11.4997 6.50037 11.4619 6.61489 11.4426 6.72051C11.4233 6.82612 11.4228 6.92077 11.4412 6.99906C11.4596 7.07734 11.4966 7.13772 11.55 7.17675Z" fill="white"/>
<path d="M19.39 4.73732L19.4787 4.92514C19.4892 4.94638 19.5046 4.96479 19.5236 4.97886C19.5427 4.99293 19.5648 5.00224 19.5882 5.00601L19.7917 5.03993C19.8211 5.04225 19.849 5.05339 19.8719 5.07189C19.8949 5.09039 19.9116 5.11538 19.9201 5.14358C19.9286 5.17179 19.9283 5.20189 19.9194 5.22995C19.9104 5.258 19.8932 5.2827 19.87 5.3008L19.7187 5.44428C19.7015 5.46095 19.6885 5.48148 19.6808 5.50415C19.6731 5.52683 19.6708 5.55101 19.6743 5.57471L19.7056 5.77819C19.7099 5.80511 19.7065 5.8327 19.6959 5.85782C19.6854 5.88294 19.6679 5.90459 19.6457 5.92033C19.6234 5.93608 19.5972 5.94528 19.57 5.9469C19.5428 5.94851 19.5157 5.94249 19.4917 5.92949L19.3091 5.83036C19.2882 5.81939 19.2649 5.81366 19.2413 5.81366C19.2176 5.81366 19.1944 5.81939 19.1734 5.83036L18.9882 5.92427C18.9636 5.93618 18.9362 5.94108 18.909 5.93842C18.8818 5.93576 18.8558 5.92566 18.834 5.90921C18.8122 5.89276 18.7953 5.87062 18.7852 5.8452C18.7751 5.81978 18.7723 5.79208 18.7769 5.76514L18.816 5.56427C18.8198 5.54038 18.8181 5.51593 18.8108 5.49285C18.8036 5.46976 18.7911 5.44867 18.7743 5.43123L18.6282 5.28775C18.606 5.26855 18.5899 5.24318 18.5821 5.21484C18.5742 5.18651 18.5749 5.15649 18.5841 5.12857C18.5934 5.10065 18.6106 5.07609 18.6338 5.05799C18.657 5.03989 18.685 5.02907 18.7143 5.02688L18.9178 4.99819C18.9417 4.99599 18.9646 4.98762 18.9842 4.9739C19.0039 4.96018 19.0197 4.94158 19.03 4.91993L19.1239 4.73732C19.1362 4.71259 19.1552 4.6918 19.1787 4.67726C19.2022 4.66273 19.2293 4.65503 19.2569 4.65503C19.2846 4.65503 19.3116 4.66273 19.3351 4.67726C19.3586 4.6918 19.3776 4.71259 19.39 4.73732Z" fill="#FFC840"/>
<path d="M8.33667 5.53293L8.27406 6.15119C8.26676 6.22343 8.2772 6.29635 8.30448 6.36363C8.33175 6.43091 8.37504 6.49052 8.43058 6.53728L8.90536 6.93902C8.97074 6.99241 9.01963 7.06326 9.04635 7.14333C9.07307 7.2234 9.07652 7.30941 9.05631 7.39137C9.03609 7.47332 8.99304 7.54786 8.93215 7.60632C8.87126 7.66478 8.79503 7.70477 8.71232 7.72163L8.10449 7.85467C8.03448 7.86961 7.96906 7.90109 7.91369 7.94647C7.85833 7.99185 7.81462 8.04982 7.78623 8.11554L7.55145 8.69206C7.52009 8.76923 7.46776 8.83607 7.40037 8.88502C7.33299 8.93398 7.25325 8.96309 7.17017 8.96906C7.08709 8.97504 7.00401 8.95763 6.93031 8.91882C6.85662 8.88001 6.79526 8.82134 6.75319 8.74946L6.44014 8.21206C6.40375 8.1496 6.35264 8.09698 6.29125 8.05879C6.22987 8.0206 6.16009 7.99799 6.08797 7.99293L5.4671 7.94598C5.38402 7.94015 5.30423 7.91117 5.23677 7.86234C5.1693 7.81351 5.11686 7.74676 5.08537 7.66966C5.05387 7.59256 5.0446 7.50819 5.05858 7.42608C5.07256 7.34398 5.10925 7.26744 5.16449 7.20511L5.57927 6.74076C5.62803 6.68687 5.66261 6.62169 5.67992 6.55111C5.69722 6.48052 5.6967 6.40675 5.67841 6.33641L5.52971 5.73119C5.50811 5.64981 5.50999 5.56397 5.53513 5.48361C5.56027 5.40325 5.60763 5.33164 5.67176 5.27707C5.73588 5.22249 5.81414 5.18718 5.89749 5.17522C5.98083 5.16326 6.06587 5.17512 6.14275 5.20946L6.71406 5.47033C6.78008 5.4987 6.85193 5.51091 6.92362 5.50592C6.99531 5.50092 7.06478 5.47888 7.12623 5.44163L7.64797 5.11293C7.71859 5.06649 7.80096 5.04106 7.88548 5.03962C7.97 5.03817 8.05319 5.06077 8.12536 5.10479C8.19752 5.1488 8.2557 5.21241 8.29311 5.28821C8.33052 5.36401 8.34563 5.44888 8.33667 5.53293ZM21.5367 19.3851L21.4036 19.6303C21.3881 19.6597 21.38 19.6924 21.38 19.7255C21.38 19.7587 21.3881 19.7914 21.4036 19.8208L21.5288 20.0816C21.5456 20.1143 21.5527 20.151 21.5493 20.1875C21.5459 20.2241 21.5322 20.2589 21.5098 20.2879C21.4873 20.3169 21.4571 20.3389 21.4226 20.3514C21.3881 20.3638 21.3507 20.3662 21.3149 20.3582L21.0541 20.2903C21.0231 20.2822 20.9907 20.2821 20.9597 20.2898C20.9287 20.2976 20.9001 20.313 20.8767 20.3347L20.6784 20.5251C20.6497 20.5497 20.6147 20.5659 20.5774 20.5719C20.54 20.5779 20.5018 20.5735 20.4667 20.5593C20.4317 20.545 20.4013 20.5213 20.3788 20.4909C20.3563 20.4605 20.3427 20.4245 20.3393 20.3868L20.2897 20.0973C20.2855 20.0636 20.2737 20.0313 20.2551 20.0028C20.2366 19.9743 20.2119 19.9504 20.1828 19.9329L19.9219 19.7895C19.8879 19.7723 19.8593 19.746 19.8393 19.7135C19.8194 19.681 19.8088 19.6437 19.8088 19.6055C19.8088 19.5674 19.8194 19.5301 19.8393 19.4976C19.8593 19.4651 19.8879 19.4388 19.9219 19.4216L20.1828 19.3147C20.2123 19.3018 20.2381 19.2816 20.2577 19.2561C20.2773 19.2305 20.2901 19.2004 20.2949 19.1686L20.3367 18.8868C20.3427 18.8495 20.3595 18.8148 20.385 18.787C20.4106 18.7591 20.4438 18.7394 20.4804 18.7302C20.5171 18.721 20.5557 18.7228 20.5913 18.7354C20.627 18.7479 20.6582 18.7707 20.681 18.8008L20.8741 19.0199C20.8951 19.0452 20.922 19.0649 20.9525 19.0772C20.9831 19.0895 21.0162 19.094 21.0488 19.0903L21.3254 19.0642C21.3651 19.0592 21.4054 19.0654 21.4417 19.0821C21.4781 19.0988 21.5091 19.1254 21.5311 19.1588C21.5531 19.1922 21.5653 19.2311 21.5663 19.2711C21.5673 19.3112 21.557 19.3506 21.5367 19.3851Z" fill="#F99C15"/>
</g>
<defs>
<clipPath id="clip0_248_1469">
<rect width="24" height="24" fill="white" transform="translate(0.685547 0.792969)"/>
</clipPath>
</defs>
</svg>
