<svg width="23" height="23" viewBox="0 0 23 23" fill="none" xmlns="http://www.w3.org/2000/svg">
<g clip-path="url(#clip0_361_1124)">
<path d="M21.4824 16.0205C20.6424 14.5209 19.2696 13.4402 17.6153 12.974C15.961 12.5078 14.225 12.7119 12.7276 13.5541C12.0078 13.9559 11.3934 14.4887 10.8864 15.1074L9.07522 8.39141L13.0047 5.5834C13.2754 5.39004 13.3549 5.02266 13.1916 4.73477L11.185 1.22207C11.069 1.02012 10.8541 0.895508 10.6221 0.895508H4.60002C4.29065 0.895508 4.02424 1.11465 3.96409 1.41758L0.911157 16.6822C0.851001 16.9852 0.820923 17.2924 0.820923 17.5975C0.820923 20.1691 2.9135 22.2617 5.48303 22.2617H20.4319C21.1322 22.2617 21.7553 21.8191 21.9873 21.1467L22.0604 20.9104C22.5266 19.2561 22.3225 17.5201 21.4824 16.0205ZM20.8143 20.5537L20.7606 20.732C20.7133 20.8717 20.6317 20.949 20.4254 20.9619H5.48303C3.62678 20.9619 2.11858 19.4537 2.11858 17.5953C2.11858 17.374 2.14006 17.1527 2.18303 16.9357L5.13284 2.19316H10.244L11.7715 4.86797L8.45647 7.23984L7.61643 6.16133C7.39729 5.87988 6.98909 5.82832 6.70549 6.04746C6.4219 6.2666 6.37249 6.67481 6.59163 6.9584L7.73889 8.43223L9.96682 16.6822C9.86584 16.925 9.75198 17.1613 9.67893 17.4191C9.58225 17.7629 9.78206 18.1217 10.128 18.2205C10.476 18.3172 10.8305 18.1174 10.9293 17.7715C11.301 16.4545 12.1647 15.3566 13.3614 14.6863C14.558 14.0182 15.9416 13.8506 17.2629 14.2244C18.5842 14.5961 19.6799 15.4576 20.3502 16.6564C21.0205 17.851 21.1838 19.2367 20.8143 20.5537Z" fill="#5A6ACF"/>
</g>
<defs>
<clipPath id="clip0_361_1124">
<rect width="22" height="22" fill="white" transform="translate(0.56311 0.577637)"/>
</clipPath>
</defs>
</svg>
