<svg width="94" height="20" viewBox="0 0 94 20" fill="none" xmlns="http://www.w3.org/2000/svg">
<path d="M0.713867 2.16406H10.7568C12.0537 2.16406 13.1865 2.30078 14.1553 2.57422C15.1318 2.84766 15.9443 3.23047 16.5928 3.72266C17.249 4.21484 17.7412 4.80469 18.0693 5.49219C18.3975 6.17969 18.5615 6.9375 18.5615 7.76562C18.5615 8.78906 18.3193 9.69922 17.835 10.4961C17.3506 11.2852 16.6318 11.9141 15.6787 12.3828L19.335 19.5898H11.6826L8.91699 13.2617H7.4873V19.5781H0.713867V2.16406ZM7.89746 11.1406C8.45215 11.1406 8.94824 11.0625 9.38574 10.9062C9.82324 10.75 10.1943 10.5312 10.499 10.25C10.8037 9.96094 11.0381 9.62109 11.2021 9.23047C11.3662 8.83203 11.4482 8.39844 11.4482 7.92969C11.4482 7.46094 11.3662 7.03125 11.2021 6.64062C11.0381 6.24219 10.8037 5.90234 10.499 5.62109C10.1943 5.33203 9.82324 5.10937 9.38574 4.95312C8.94824 4.79688 8.45215 4.71875 7.89746 4.71875H7.49902L7.4873 11.1406H7.89746ZM21.2334 13.707C21.2334 13.0352 21.3389 12.4219 21.5498 11.8672C21.7607 11.3125 22.0498 10.8164 22.417 10.3789C22.792 9.93359 23.2334 9.54688 23.7412 9.21875C24.249 8.89062 24.7998 8.61719 25.3936 8.39844C25.9873 8.17969 26.6084 8.01562 27.2568 7.90625C27.9053 7.79688 28.5615 7.74219 29.2256 7.74219C30.1006 7.74219 30.8936 7.83203 31.6045 8.01172C32.3232 8.18359 32.96 8.42188 33.5146 8.72656C34.0771 9.03125 34.5615 9.38672 34.9678 9.79297C35.3818 10.1992 35.7217 10.6328 35.9873 11.0938C36.2607 11.5469 36.46 12.0156 36.585 12.5C36.7178 12.9844 36.7842 13.457 36.7842 13.918L27.9248 14.9844C28.0967 15.8516 28.4404 16.5234 28.9561 17C29.4717 17.4766 30.1943 17.7148 31.124 17.7148C31.6318 17.7148 32.1045 17.6523 32.542 17.5273C32.9873 17.4023 33.335 17.25 33.585 17.0703L34.5225 18.7109C34.2334 18.8594 33.917 19 33.5732 19.1328C33.2373 19.2656 32.8623 19.3828 32.4482 19.4844C32.042 19.5781 31.5889 19.6523 31.0889 19.707C30.5967 19.7695 30.0537 19.8008 29.46 19.8008C28.0381 19.8008 26.8115 19.6367 25.7803 19.3086C24.749 18.9727 23.8936 18.5273 23.2139 17.9727C22.542 17.4102 22.042 16.7617 21.7139 16.0273C21.3936 15.293 21.2334 14.5195 21.2334 13.707ZM31.1006 12.7227C31.1006 11.707 30.9717 10.9688 30.7139 10.5078C30.4639 10.0469 30.0889 9.81641 29.5889 9.81641C29.3311 9.81641 29.0928 9.87891 28.874 10.0039C28.6553 10.1289 28.4678 10.3242 28.3115 10.5898C28.1553 10.8555 28.0303 11.1992 27.9365 11.6211C27.8428 12.0352 27.792 12.5391 27.7842 13.1328L31.1006 12.7227ZM38.9873 0.230469H45.3506V9.82812C46.2256 9.19531 47.1201 8.69141 48.0342 8.31641C48.9561 7.93359 49.9209 7.74219 50.9287 7.74219C51.4678 7.74219 51.9678 7.83203 52.4287 8.01172C52.8975 8.19141 53.3037 8.46875 53.6475 8.84375C53.9912 9.21875 54.2607 9.70312 54.4561 10.2969C54.6514 10.8828 54.749 11.5859 54.749 12.4062V19.5781H48.3857V12.0078C48.3857 11.6016 48.2959 11.3047 48.1162 11.1172C47.9443 10.9297 47.6592 10.8359 47.2607 10.8359C47.0811 10.8359 46.9014 10.8633 46.7217 10.918C46.5498 10.9727 46.3818 11.043 46.2178 11.1289C46.0537 11.2148 45.8975 11.3125 45.749 11.4219C45.6006 11.5312 45.4678 11.6406 45.3506 11.75V19.5781H38.9873V0.230469ZM57.1631 15.9219C57.1631 15.3594 57.2881 14.8359 57.5381 14.3516C57.7881 13.8672 58.1475 13.4453 58.6162 13.0859C59.085 12.7266 59.6514 12.4453 60.3154 12.2422C60.9795 12.0312 61.7217 11.9258 62.542 11.9258C63.3623 11.9258 64.1279 12.0234 64.8389 12.2188C65.5576 12.4062 66.1592 12.6484 66.6436 12.9453V12.8516C66.6436 12.3047 66.5811 11.8398 66.4561 11.457C66.3389 11.0742 66.1553 10.7617 65.9053 10.5195C65.6553 10.2773 65.335 10.1016 64.9443 9.99219C64.5615 9.88281 64.1084 9.82812 63.585 9.82812C63.1084 9.82812 62.6162 9.87109 62.1084 9.95703C61.6006 10.0352 61.1318 10.1523 60.7021 10.3086L59.8467 8.72656C60.6982 8.375 61.5771 8.125 62.4834 7.97656C63.3975 7.82031 64.3389 7.74219 65.3076 7.74219C66.5498 7.74219 67.6475 7.86328 68.6006 8.10547C69.5615 8.33984 70.3662 8.69531 71.0146 9.17188C71.6709 9.64062 72.167 10.2344 72.5029 10.9531C72.8389 11.6641 73.0068 12.5 73.0068 13.4609V19.5781H67.0654L66.667 18.4531C66.4326 18.6328 66.1553 18.8047 65.835 18.9688C65.5146 19.1328 65.1631 19.2773 64.7803 19.4023C64.3975 19.5273 63.9912 19.625 63.5615 19.6953C63.1318 19.7656 62.6826 19.8008 62.2139 19.8008C61.4482 19.8008 60.7529 19.7031 60.1279 19.5078C59.5107 19.3047 58.9834 19.0312 58.5459 18.6875C58.1084 18.3438 57.7686 17.9375 57.5264 17.4688C57.2842 16.9922 57.1631 16.4766 57.1631 15.9219ZM63.7256 15.6758C63.7256 16.0977 63.8623 16.4414 64.1357 16.707C64.4092 16.9648 64.7764 17.0938 65.2373 17.0938C65.4873 17.0938 65.7334 17.0547 65.9756 16.9766C66.2178 16.8906 66.4404 16.7656 66.6436 16.6016V14.6211C66.2529 14.3867 65.8232 14.2695 65.3545 14.2695C64.8232 14.2695 64.417 14.4023 64.1357 14.668C63.8623 14.9258 63.7256 15.2617 63.7256 15.6758ZM76.1826 0.242188H82.5576V9.35938C82.7764 9.14844 83.0342 8.94922 83.3311 8.76172C83.6357 8.56641 83.9678 8.39453 84.3271 8.24609C84.6943 8.08984 85.085 7.96875 85.499 7.88281C85.9209 7.78906 86.3623 7.74219 86.8232 7.74219C87.7061 7.74219 88.5342 7.87109 89.3076 8.12891C90.0811 8.38672 90.7568 8.76953 91.335 9.27734C91.9131 9.78516 92.3662 10.4141 92.6943 11.1641C93.0303 11.9141 93.1982 12.7852 93.1982 13.7773C93.1982 14.6914 93.0381 15.5195 92.7178 16.2617C92.4053 16.9961 91.9521 17.6289 91.3584 18.1602C90.7646 18.6836 90.042 19.0898 89.1904 19.3789C88.3467 19.6602 87.3975 19.8008 86.3428 19.8008C85.4912 19.8008 84.7256 19.6953 84.0459 19.4844C83.374 19.2656 82.8076 18.9805 82.3467 18.6289L82.0186 19.5781H76.1943L76.1826 0.242188ZM82.5576 17.2461C82.7451 17.4023 82.9561 17.5273 83.1904 17.6211C83.4326 17.707 83.6709 17.75 83.9053 17.75C84.2959 17.75 84.6553 17.6797 84.9834 17.5391C85.3193 17.3906 85.6084 17.1641 85.8506 16.8594C86.1006 16.5547 86.292 16.168 86.4248 15.6992C86.5654 15.2227 86.6357 14.6523 86.6357 13.9883C86.6357 13.3164 86.5693 12.7422 86.4365 12.2656C86.3115 11.7891 86.1357 11.4023 85.9092 11.1055C85.6826 10.8008 85.4131 10.5781 85.1006 10.4375C84.7881 10.2969 84.4443 10.2266 84.0693 10.2266C83.7803 10.2266 83.5068 10.2773 83.249 10.3789C82.9912 10.4805 82.7607 10.6094 82.5576 10.7656V17.2461Z" fill="#5A6ACF"/>
</svg>
