<svg width="410" height="333" viewBox="0 0 410 333" fill="none" xmlns="http://www.w3.org/2000/svg">
<g clip-path="url(#clip0_182_4206)">
<path d="M92.2408 168.806C87.0365 168.455 84.6125 169.471 83.0474 170.507C82.5449 170.839 82.0492 171.228 81.5806 171.649C83.9461 166.833 86.369 162.039 88.838 157.278C88.854 157.917 88.9673 158.221 89.2471 158.372C89.8873 158.719 91.3809 157.609 94.3421 155.374C96.593 153.676 96.8805 153.245 97.0478 152.95C97.6362 151.913 97.5862 151.058 97.2235 147.332C96.5725 140.643 96.4048 140.015 96.7204 138.436C96.8291 137.892 97.1257 136.582 96.9151 136.506C96.6987 136.429 96.3624 137.804 95.1651 138.701C93.998 139.575 93.1768 139.124 92.1162 139.687C90.7454 140.414 90.368 142.097 89.8005 144.805C89.298 147.204 89.4262 148.052 89.1266 152.571C89.0418 153.851 88.9612 154.847 88.9062 155.632C86.6956 159.873 84.5264 164.145 82.3962 168.434C82.4251 168.317 82.4521 168.206 82.4756 168.109C83.1347 165.398 82.9151 164.146 82.5838 163.267C82.0471 161.843 80.9806 160.991 78.8693 159.343C76.8004 157.729 75.0503 156.8 72.9473 155.696C70.1906 154.249 68.8123 153.526 68.4384 153.737C67.4995 154.268 67.639 157.051 68.4234 160.533C66.6381 159.608 65.69 159.175 65.3901 159.345C65.2609 159.418 65.1529 159.535 65.0634 159.689C63.7288 159.623 61.9597 159.699 59.9355 159.965C61.5326 159.386 63.3275 158.622 65.2608 157.579C66.9368 156.675 67.7731 156.216 67.6929 155.836C67.4057 154.477 55.9622 154.504 46.1523 159.671C41.5338 162.103 39.9979 164.242 39.2037 165.946C38.9487 166.493 38.729 167.085 38.549 167.69C38.0544 162.344 37.6199 156.986 37.2423 151.632C37.5892 152.168 37.8438 152.368 38.1614 152.35C38.8878 152.309 39.582 150.579 40.9409 147.121C41.9737 144.492 41.9943 143.974 41.9831 143.634C41.9439 142.442 41.4556 141.739 39.2037 138.754C35.1621 133.395 34.6918 132.948 34.1374 131.436C33.9465 130.916 33.5161 129.643 33.2974 129.69C33.0727 129.737 33.5029 131.086 32.95 132.479C32.4111 133.836 31.4759 133.883 30.8654 134.919C30.0763 136.258 30.632 137.891 31.5603 140.497C32.3824 142.805 32.934 143.46 35.0346 147.469C35.6296 148.605 36.0802 149.496 36.4422 150.193C36.7693 154.968 37.1478 159.748 37.5683 164.521C37.5316 164.406 37.4968 164.297 37.4666 164.203C36.6148 161.546 35.7751 160.595 35.0346 160.02C33.8348 159.088 32.4813 158.921 29.8231 158.625C27.2184 158.335 25.2423 158.462 22.8746 158.625C19.7709 158.839 18.219 158.946 18.0106 159.322C17.4385 160.355 19.3716 163.005 22.2602 165.84C19.9022 166.008 18.7001 166.131 18.5186 166.459C18.044 167.317 19.2974 169.289 21.3858 171.554C19.9342 171.68 19.1685 171.811 19.0267 172.067C17.4331 174.945 35.2391 190.364 39.1775 187.406C39.4766 187.182 39.6885 186.852 39.8343 186.45C39.8988 186.994 39.9647 187.538 40.0305 188.082C35.3779 187.556 26.4403 188.963 21.1374 194.533C18.5013 197.302 18.104 199.692 18.0106 200.459C17.5963 203.865 19.2477 207.489 20.6179 207.755C21.0224 210.29 22.29 212.387 23.3303 212.369C24.6346 212.346 24.4038 209.021 27.4994 205.396C29.6595 202.867 32.2281 201.61 33.7531 200.864C37.0286 199.261 38.9318 199.309 41.2913 198.003C41.3386 198.355 41.3891 198.706 41.437 199.058C37.115 199.785 32.1795 201.645 28.7582 205.239C26.122 208.007 25.7247 210.397 25.6313 211.165C25.3761 213.263 25.9072 215.441 26.6714 216.872C24.5923 219.063 24.0175 221.351 22.8746 225.909C22.1444 228.82 22.3039 229.853 22.8746 230.441C23.3465 230.927 24.0921 231.1 27.0437 230.789C30.2456 230.453 31.8465 230.284 33.2974 229.744C35.5926 228.888 37.175 227.418 40.246 224.514C41.5088 223.32 42.5767 222.305 43.4471 221.421C43.9001 221.576 44.3251 221.694 44.7543 221.779C44.8042 221.789 44.8533 221.796 44.903 221.805C45.695 226.514 46.5318 231.21 47.4123 235.886C44.5478 236.528 42.1002 238.419 40.7554 241.142L30.1275 262.657C29.4566 264.015 29.1019 265.534 29.1019 267.05V322.372C29.1019 327.827 33.5243 332.264 38.9602 332.264H63.7672C69.2031 332.264 73.6255 327.827 73.6255 322.372V271.431C73.6255 270.189 73.3963 268.973 72.9441 267.817L62.8152 241.922C61.3506 238.177 57.8508 235.74 53.8601 235.652C55.9293 230.174 58.064 224.703 60.2734 219.255C60.6139 219.122 60.9152 218.984 61.177 218.838C61.5846 219.287 62.4198 219.81 64.1908 220.66C67.0951 222.054 68.5472 222.751 70.0658 223.051C72.4679 223.527 74.5826 223.105 78.714 222.242C84.3354 221.067 87.1581 220.447 87.7461 218.806C88.5599 216.534 86.0073 213.608 85.3038 212.802C83.7747 211.049 82.0869 210.25 81.044 209.769C79.6898 209.145 75.8302 207.366 71.1645 208.593C68.2278 209.365 66.5459 211.014 63.182 214.312C62.8581 214.629 62.5785 214.918 62.3302 215.187C62.2742 215.026 62.2111 214.866 62.1418 214.708C62.6136 213.567 63.0854 212.426 63.5629 211.287C67.0124 208.003 68.71 206.195 68.3877 204.643C68.2365 203.914 67.7791 203.302 67.1902 202.792C67.8446 201.284 68.5003 199.778 69.1641 198.276C69.4692 198.269 69.784 198.255 70.123 198.223C71.9005 198.055 73.9129 197.864 74.1276 197.008C74.2411 196.555 73.8501 195.892 73.0817 195.146C74.1921 194.835 75.8834 192.567 79.68 191.34C82.8394 190.318 85.6837 190.595 87.3725 190.76C91.7303 191.184 93.1522 192.604 97.0703 192.233C98.8477 192.065 100.86 191.875 101.075 191.018C101.171 190.633 100.902 190.097 100.35 189.488C101.338 189.625 102.394 189.733 103.52 189.798C105.42 189.908 106.372 189.955 106.502 189.589C106.966 188.28 97.1983 182.297 86.1442 181.551C83.4604 181.37 81.5199 181.554 80.0514 181.915C83.5846 180.592 88.8432 178.58 94.6162 180.209C96.6037 180.769 100.626 182.319 106.569 182.661C108.468 182.771 109.42 182.818 109.55 182.452C110.014 181.144 100.255 175.165 89.2064 174.415C91.7707 173.895 94.6471 173.749 97.6645 174.601C99.652 175.162 103.674 176.711 109.617 177.054C111.516 177.163 112.469 177.21 112.598 176.845C113.062 175.535 103.295 169.552 92.2408 168.806ZM41.1755 191.729C41.3252 191.611 41.4719 191.493 41.6134 191.375C41.867 191.748 42.1348 192.036 42.4026 192.218C42.4312 192.368 42.4618 192.516 42.496 192.661C42.1186 192.621 41.7142 192.593 41.2861 192.579C41.25 192.296 41.2112 192.012 41.1755 191.729ZM63.0074 172.112C63.0506 172.36 63.0974 172.613 63.1489 172.872C62.6766 172.782 62.1357 172.717 61.5442 172.679C62.0159 172.506 62.503 172.319 63.0074 172.112ZM64.1324 176.802C63.7698 176.766 63.3819 176.741 62.974 176.729C63.2929 176.485 63.6082 176.238 63.9002 175.992C63.9749 176.26 64.0521 176.53 64.1324 176.802ZM55.7686 184.88C59.5096 183.117 61.4469 183.493 64.5136 181.18C64.7991 180.965 65.0917 180.744 65.3757 180.521C66.3934 183.244 67.6114 185.842 68.8661 187.724C65.3524 185.944 60.5251 184.498 55.7686 184.88ZM64.774 162.421C64.8868 163.907 65.2502 165.796 65.791 167.825C65.7602 167.825 65.7296 167.825 65.6985 167.825C64.356 167.147 63.6164 166.846 63.3579 166.992C63.0887 167.144 62.9083 167.482 62.8062 167.967C58.5872 168.371 52.9004 169.664 47.6764 172.416C43.0579 174.848 41.522 176.987 40.7279 178.691C40.3893 179.417 40.1127 180.222 39.9095 181.031C39.8053 180.093 39.6981 179.157 39.5974 178.217C41.8678 177.33 45.3005 168.769 53.7957 166.351C55.7197 165.803 59.7574 165.038 64.774 162.421ZM40.0596 192.575C40.1222 192.529 40.1824 192.489 40.246 192.441C40.3429 192.368 40.4407 192.294 40.5387 192.22C40.5534 192.336 40.5693 192.452 40.584 192.568C40.4117 192.569 40.2378 192.57 40.0596 192.575ZM41.9413 197.614C42.2152 197.438 42.4943 197.249 42.7863 197.029C43.2257 196.698 43.6827 196.353 44.0975 196.01C44.4187 196.335 44.7481 196.525 45.0576 196.52C45.1788 196.517 45.2835 196.478 45.382 196.421C45.1158 197.221 44.959 198.004 44.909 198.7C44.0349 198.731 43.1003 198.81 42.1234 198.949C42.0628 198.504 42.0011 198.059 41.9413 197.614ZM53.1203 235.644H49.588C49.0821 235.644 48.584 235.684 48.0953 235.758C47.2295 231.16 46.4063 226.544 45.6261 221.913C47.7033 222.144 49.7759 221.727 53.4025 220.969C55.9721 220.432 57.9505 220.011 59.4043 219.555C57.2413 224.902 55.1482 230.269 53.1203 235.644ZM61.3903 213.341C61.6807 213.069 61.9883 212.779 62.3088 212.476C62.1129 212.946 61.9222 213.418 61.7273 213.888C61.6187 213.699 61.5057 213.517 61.3903 213.341ZM63.1763 200.808C60.9593 200.117 59.1042 200.322 57.9649 200.459C56.5364 200.632 52.5588 201.122 49.2825 204.3C48.189 204.271 46.9508 204.332 45.6315 204.498C46.3339 204.175 47.061 203.754 47.8667 203.147C49.294 202.07 50.9098 200.852 50.6462 200.009C50.5244 199.62 49.9896 199.297 49.1627 199.066C50.0941 198.447 51.2511 197.808 52.7327 197.329C55.8922 196.308 58.7365 196.585 60.4253 196.749C64.0809 197.106 65.6752 198.158 68.4055 198.27C67.8053 199.63 67.2131 200.994 66.6206 202.358C65.353 201.49 63.7863 200.998 63.1763 200.808ZM71.2151 193.676C71.2391 193.623 71.2626 193.569 71.2867 193.516C71.4757 193.494 71.6623 193.47 71.8444 193.443C71.8573 193.719 71.8926 193.967 71.9473 194.189C71.7197 194.019 71.4723 193.848 71.2151 193.676ZM76.9508 183.252C76.9338 183.263 76.9171 183.276 76.9002 183.287C76.9406 183.141 76.9785 183.001 77.0151 182.864C77.3264 182.821 77.6822 182.733 78.0791 182.612C77.6538 182.816 77.2813 183.033 76.9508 183.252Z" fill="#5A6ACF" fill-opacity="0.3"/>
<path d="M122.708 327.599L130.457 327.598L134.143 297.607L122.706 297.608L122.708 327.599Z" fill="#FFB6B6"/>
<path d="M149.256 327.422C149.498 327.83 149.625 329.146 149.625 329.62C149.625 331.078 148.447 332.259 146.995 332.259H122.998C122.007 332.259 121.204 331.453 121.204 330.459V329.457C121.204 329.457 120.016 326.444 122.46 322.73C122.46 322.73 125.498 325.638 130.037 321.083L131.376 318.65L141.065 325.76L146.435 326.424C147.61 326.569 148.652 326.401 149.256 327.422Z" fill="#2F2E41"/>
<path d="M165.384 327.599L173.133 327.598L176.819 297.607L165.383 297.608L165.384 327.599Z" fill="#FFB6B6"/>
<path d="M191.933 327.422C192.174 327.83 192.301 329.146 192.301 329.62C192.301 331.078 191.124 332.259 189.671 332.259H165.674C164.683 332.259 163.88 331.453 163.88 330.459V329.457C163.88 329.457 162.693 326.444 165.137 322.73C165.137 322.73 168.174 325.638 172.713 321.083L174.052 318.65L183.741 325.76L189.111 326.424C190.286 326.569 191.328 326.401 191.933 327.422Z" fill="#2F2E41"/>
<path d="M162.271 88.858C162.271 88.858 171.196 84.7797 176.895 88.858C182.593 92.9363 187.674 129.641 181.577 135.759C175.481 141.876 165.32 128.112 165.32 128.112L162.271 88.858Z" fill="#FFB6B6"/>
<path d="M128.541 89.3437C128.541 89.3437 119.616 85.2654 113.917 89.3437C108.219 93.4221 103.138 130.127 109.235 136.245C115.331 142.362 125.492 128.598 125.492 128.598L128.541 89.3437Z" fill="#FFB6B6"/>
<path d="M128.795 134.46C128.795 134.46 125.747 148.225 122.19 154.342L148.101 169.636L168.423 156.381C168.423 156.381 158.77 140.578 160.294 135.99L128.795 134.46Z" fill="#FFB6B6"/>
<path d="M305.328 326.07L295.377 326.069L290.644 287.555L305.33 287.556L305.328 326.07Z" fill="#FFB6B6"/>
<path d="M271.235 325.844C270.925 326.368 270.761 328.058 270.761 328.666C270.761 330.538 272.274 332.056 274.139 332.056H304.956C306.229 332.056 307.26 331.02 307.26 329.743V328.456C307.26 328.456 308.785 324.587 305.646 319.817C305.646 319.817 301.745 323.552 295.916 317.703L294.197 314.578L281.755 323.709L274.858 324.561C273.349 324.748 272.011 324.532 271.235 325.844Z" fill="#2F2E41"/>
<path d="M336.088 326.07L326.137 326.069L321.403 287.555L336.09 287.556L336.088 326.07Z" fill="#FFB6B6"/>
<path d="M301.995 325.844C301.685 326.368 301.521 328.058 301.521 328.666C301.521 330.538 303.033 332.056 304.899 332.056H335.716C336.988 332.056 338.02 331.02 338.02 329.743V328.456C338.02 328.456 339.545 324.587 336.406 319.817C336.406 319.817 332.505 323.552 326.676 317.703L324.957 314.578L312.514 323.709L305.617 324.561C304.109 324.748 302.771 324.532 301.995 325.844Z" fill="#2F2E41"/>
<path d="M284.626 103.89C284.626 103.89 283.185 113.199 284.854 119.205L260.344 162.816L269.879 169.789L301.718 129.592L306.131 109.731L284.626 103.89Z" fill="#FFB6B6"/>
<path d="M268.416 176.133C271.793 170.123 271.532 163.554 267.833 161.46C264.134 159.367 258.397 162.542 255.019 168.552C251.641 174.562 251.902 181.131 255.602 183.224C259.301 185.318 265.038 182.143 268.416 176.133Z" fill="#FFB6B6"/>
<path d="M294.188 148.26C294.188 148.26 282.47 156.558 286.498 168.944L283.202 210.726L290.526 296.707H306.301L308.835 234.977L319.088 196.028L320.417 296.707L339.961 296.34C339.961 296.34 341.059 246 339.595 243.061C338.13 240.121 339.595 242.479 339.595 242.479L351.679 183.526L349.848 143.116L294.188 148.26Z" fill="#2F2E41"/>
<path d="M323.116 45.7439L301.877 53.8276L304.075 59.7067L286.498 72.9347L298.216 114.088L291.624 150.833L310.666 150.098L351.679 146.423L347.285 101.595L348.017 58.237L331.905 52.3579L323.116 45.7439Z" fill="#5A6ACF"/>
<path d="M291.99 71.8323L286.498 72.9346C286.498 72.9346 283.934 74.7718 283.934 81.3858C283.934 87.9998 283.934 92.4091 284.667 96.0835C284.667 96.0835 280.272 107.842 281.737 110.781C283.202 113.721 301.511 113.721 301.511 113.721L291.99 71.8323Z" fill="#5A6ACF"/>
<path d="M322.257 28.691C322.257 37.9428 314.783 45.4429 305.562 45.4429C296.342 45.4429 288.868 37.9428 288.868 28.691C288.868 19.4392 296.342 11.9391 305.562 11.9391C314.783 11.9391 322.257 19.4392 322.257 28.691Z" fill="#FFB6B6"/>
<path d="M315.995 40.3559C315.995 40.3559 318.953 28.9545 315.801 30.9649L310.91 30.4985L313.998 22.2096C313.998 22.2096 308.47 18.051 306.266 20.4819C304.062 22.9127 304.59 24.2836 302.586 21.1214C300.583 17.9592 296.396 18.0189 292.562 20.2944C288.727 22.5698 285.731 22.9443 286.46 18.7221C287.189 14.4999 286.78 7.3254 289.056 8.13905C291.333 8.95269 290.709 9.41194 291.936 6.46349C293.164 3.51504 293.319 1.87916 296.16 3.14051C299.002 4.40185 306.143 -1.51988 309.094 2.0628C312.044 5.64547 314.622 6.22137 317.199 6.79727C319.777 7.37318 330.132 5.71957 329.266 21.8134C329.266 21.8134 336.178 35.6778 323.728 42.0836C323.728 42.0836 320.349 38.7376 317.99 42.8043L315.995 40.3559Z" fill="#2F2E41"/>
<path d="M155.721 76.3441L139.464 76.8538L130.827 87.5595L121.174 89.5986C121.174 89.5986 118.126 118.147 122.698 128.343C127.271 138.539 125.238 141.597 125.238 141.597L161.818 141.088C161.818 141.088 160.802 134.163 166.899 128.194L169.956 116.841C171.59 110.771 171.034 104.316 168.384 98.6182L161.818 84.5007L156.229 82.4616L155.721 76.3441Z" fill="#2F2E41"/>
<path d="M125.238 147.715L122.952 151.538C122.952 151.538 115.84 161.224 114.823 188.753C113.807 216.282 122.19 305.361 122.19 305.361H133.791L146.333 184.841L163.088 305.495L178.076 305.75L176.805 182.636C176.805 182.636 173.757 154.597 165.628 148.48C165.628 148.48 139.464 172.185 125.238 147.715Z" fill="#2F2E41"/>
<path d="M104.08 87.3214C104.08 92.6139 103.762 96.5519 98.0027 96.9043C92.593 97.2353 91.9253 92.6139 91.9253 87.3214C91.9253 82.0289 92.0513 77.7813 98.0027 77.7384C104.778 77.6896 104.08 82.0289 104.08 87.3214Z" fill="#5A6ACF"/>
<path d="M137.94 87.3214C137.94 92.6139 139.326 96.5519 131.862 96.9043C126.121 97.1754 125.785 92.6139 125.785 87.3214C125.785 82.0289 126.628 78.3323 131.862 77.7384C136.785 77.1798 137.94 82.0289 137.94 87.3214Z" fill="#5A6ACF"/>
<path d="M132.731 82.9655H98.8708V90.8061H132.731V82.9655Z" fill="#5A6ACF"/>
<path d="M162.506 85.7919C162.506 91.0845 162.188 95.0225 156.428 95.3749C151.019 95.7058 150.351 91.0845 150.351 85.7919C150.351 80.4994 150.477 76.2519 156.428 76.209C163.204 76.1602 162.506 80.4994 162.506 85.7919Z" fill="#5A6ACF"/>
<path d="M196.365 85.7919C196.365 91.0844 197.751 95.0225 190.288 95.3749C184.546 95.6459 184.211 91.0844 184.211 85.7919C184.211 80.4994 185.054 76.8029 190.288 76.209C195.211 75.6504 196.365 80.4994 196.365 85.7919Z" fill="#5A6ACF"/>
<path d="M191.156 81.4361H157.297V89.2767H191.156V81.4361Z" fill="#5A6ACF"/>
<path d="M250.906 169.398C250.906 174.69 250.589 178.628 244.829 178.981C239.419 179.312 238.751 174.69 238.751 169.398C238.751 164.105 238.877 159.858 244.829 159.815C251.605 159.766 250.906 164.105 250.906 169.398Z" fill="#5A6ACF"/>
<path d="M284.766 169.398C284.766 174.69 286.152 178.628 278.688 178.981C272.947 179.252 272.611 174.69 272.611 169.398C272.611 164.105 273.454 160.409 278.688 159.815C283.612 159.256 284.766 164.105 284.766 169.398Z" fill="#5A6ACF"/>
<path d="M279.557 165.042H245.697V172.882H279.557V165.042Z" fill="#5A6ACF"/>
<path d="M174.486 97.8336C178.132 97.8336 181.087 93.0324 181.087 87.1099C181.087 81.1873 178.132 76.3862 174.486 76.3862C170.841 76.3862 167.885 81.1873 167.885 87.1099C167.885 93.0324 170.841 97.8336 174.486 97.8336Z" fill="#FFB6B6"/>
<path d="M143.274 70.2266C153.235 70.2266 161.31 62.124 161.31 52.129C161.31 42.1339 153.235 34.0314 143.274 34.0314C133.313 34.0314 125.239 42.1339 125.239 52.129C125.239 62.124 133.313 70.2266 143.274 70.2266Z" fill="#FFB6B6"/>
<path d="M139.653 57.8156L143.826 51.1519L145.705 42.0895C145.705 42.0895 164.715 46.742 159.615 37.4371C154.515 28.1322 141.532 25.8059 132.723 32.7846L128.926 36.5066C128.926 36.5066 137.36 28.5974 132.259 25.8059C127.159 23.0145 128.086 21.1535 125.304 23.4797C122.523 25.8059 123.914 27.6669 120.668 26.2712C117.422 24.8754 110.468 23.0145 111.395 25.3407C112.322 27.6669 105.327 33.7151 107.897 36.5066C110.468 39.298 108.149 44.881 112.786 43.4853C117.422 42.0895 115.104 49.0682 119.277 46.2767C119.277 46.2767 115.852 50.6565 118.634 53.9132C121.416 57.1699 125.702 58.437 125.238 63.0894C124.775 67.7419 135.907 68.6971 135.907 68.6971L135.041 55.1164C135.041 55.1164 137.799 52.8481 139.653 57.8156Z" fill="#2F2E41"/>
<path d="M323.275 89.0436C323.275 89.0436 320.616 98.0781 321.476 104.254L291.418 144.217L299.946 152.397L336.819 116.793L343.818 97.6954L323.275 89.0436Z" fill="#FFB6B6"/>
<path d="M297.657 158.49C301.8 152.983 302.41 146.437 299.02 143.87C295.63 141.303 289.524 143.686 285.381 149.193C281.239 154.7 280.629 161.246 284.019 163.813C287.409 166.381 293.515 163.997 297.657 158.49Z" fill="#FFB6B6"/>
<path d="M345.058 55.8226C345.058 55.8226 354.423 59.2315 353.231 65.6949C352.04 72.1583 351.588 76.4193 351.588 76.4193C351.588 76.4193 352.603 79.9499 351.279 81.7096C349.955 83.4693 343.16 104.103 343.16 104.103L318.719 95.7208C318.719 95.7208 333.047 55.9332 345.058 55.8226Z" fill="#5A6ACF"/>
<path d="M409.18 332.467C409.18 332.703 408.989 332.895 408.754 332.895H0.607197C0.371497 332.895 0.18042 332.703 0.18042 332.467C0.18042 332.23 0.371492 332.038 0.607197 332.038H408.754C408.989 332.038 409.18 332.23 409.18 332.467Z" fill="#E6E6E6"/>
<path d="M122.927 87.5956C122.927 93.5181 119.971 98.3193 116.326 98.3193C112.68 98.3193 109.725 93.5181 109.725 87.5956C109.725 81.673 112.68 76.8718 116.326 76.8718C119.971 76.8718 122.927 81.673 122.927 87.5956Z" fill="#FFB6B6"/>
</g>
<defs>
<clipPath id="clip0_182_4206">
<rect width="409" height="332" fill="white" transform="translate(0.18042 0.894897)"/>
</clipPath>
</defs>
</svg>
