<svg width="197" height="61" viewBox="0 0 197 61" fill="none" xmlns="http://www.w3.org/2000/svg">
<g filter="url(#filter0_d_248_1419)">
<rect x="1.95215" y="6.69727" width="29.2219" height="29.7608" rx="3" fill="#7590D2" fill-opacity="0.3" shape-rendering="crispEdges"/>
</g>
<g clip-path="url(#clip0_248_1419)">
<path d="M26.4824 26.0206C25.6424 24.521 24.2696 23.4404 22.6153 22.9741C20.961 22.5079 19.225 22.712 17.7276 23.5542C17.0078 23.956 16.3934 24.4888 15.8864 25.1075L14.0752 18.3915L18.0047 15.5835C18.2754 15.3902 18.3549 15.0228 18.1916 14.7349L16.185 11.2222C16.069 11.0202 15.8541 10.8956 15.6221 10.8956H9.60002C9.29065 10.8956 9.02424 11.1148 8.96409 11.4177L5.91116 26.6823C5.851 26.9853 5.82092 27.2925 5.82092 27.5976C5.82092 30.1693 7.9135 32.2618 10.483 32.2618H25.4319C26.1322 32.2618 26.7553 31.8193 26.9873 31.1468L27.0604 30.9105C27.5266 29.2562 27.3225 27.5202 26.4824 26.0206ZM25.8143 30.5538L25.7606 30.7322C25.7133 30.8718 25.6317 30.9491 25.4254 30.962H10.483C8.62678 30.962 7.11858 29.4538 7.11858 27.5954C7.11858 27.3741 7.14006 27.1529 7.18303 26.9359L10.1328 12.1933H15.244L16.7715 14.8681L13.4565 17.24L12.6164 16.1614C12.3973 15.88 11.9891 15.8284 11.7055 16.0476C11.4219 16.2667 11.3725 16.6749 11.5916 16.9585L12.7389 18.4323L14.9668 26.6823C14.8658 26.9251 14.752 27.1615 14.6789 27.4193C14.5823 27.763 14.7821 28.1218 15.128 28.2206C15.476 28.3173 15.8305 28.1175 15.9293 27.7716C16.301 26.4546 17.1647 25.3568 18.3614 24.6865C19.558 24.0183 20.9416 23.8507 22.2629 24.2245C23.5842 24.5962 24.6799 25.4577 25.3502 26.6566C26.0205 27.8511 26.1838 29.2368 25.8143 30.5538Z" fill="#5A6ACF"/>
</g>
<path d="M40.7139 13.1641H50.7568C52.0537 13.1641 53.1865 13.3008 54.1553 13.5742C55.1318 13.8477 55.9443 14.2305 56.5928 14.7227C57.249 15.2148 57.7412 15.8047 58.0693 16.4922C58.3975 17.1797 58.5615 17.9375 58.5615 18.7656C58.5615 19.7891 58.3193 20.6992 57.835 21.4961C57.3506 22.2852 56.6318 22.9141 55.6787 23.3828L59.335 30.5898H51.6826L48.917 24.2617H47.4873V30.5781H40.7139V13.1641ZM47.8975 22.1406C48.4521 22.1406 48.9482 22.0625 49.3857 21.9062C49.8232 21.75 50.1943 21.5312 50.499 21.25C50.8037 20.9609 51.0381 20.6211 51.2021 20.2305C51.3662 19.832 51.4482 19.3984 51.4482 18.9297C51.4482 18.4609 51.3662 18.0312 51.2021 17.6406C51.0381 17.2422 50.8037 16.9023 50.499 16.6211C50.1943 16.332 49.8232 16.1094 49.3857 15.9531C48.9482 15.7969 48.4521 15.7188 47.8975 15.7188H47.499L47.4873 22.1406H47.8975ZM61.2334 24.707C61.2334 24.0352 61.3389 23.4219 61.5498 22.8672C61.7607 22.3125 62.0498 21.8164 62.417 21.3789C62.792 20.9336 63.2334 20.5469 63.7412 20.2188C64.249 19.8906 64.7998 19.6172 65.3936 19.3984C65.9873 19.1797 66.6084 19.0156 67.2568 18.9062C67.9053 18.7969 68.5615 18.7422 69.2256 18.7422C70.1006 18.7422 70.8936 18.832 71.6045 19.0117C72.3232 19.1836 72.96 19.4219 73.5146 19.7266C74.0771 20.0312 74.5615 20.3867 74.9678 20.793C75.3818 21.1992 75.7217 21.6328 75.9873 22.0938C76.2607 22.5469 76.46 23.0156 76.585 23.5C76.7178 23.9844 76.7842 24.457 76.7842 24.918L67.9248 25.9844C68.0967 26.8516 68.4404 27.5234 68.9561 28C69.4717 28.4766 70.1943 28.7148 71.124 28.7148C71.6318 28.7148 72.1045 28.6523 72.542 28.5273C72.9873 28.4023 73.335 28.25 73.585 28.0703L74.5225 29.7109C74.2334 29.8594 73.917 30 73.5732 30.1328C73.2373 30.2656 72.8623 30.3828 72.4482 30.4844C72.042 30.5781 71.5889 30.6523 71.0889 30.707C70.5967 30.7695 70.0537 30.8008 69.46 30.8008C68.0381 30.8008 66.8115 30.6367 65.7803 30.3086C64.749 29.9727 63.8936 29.5273 63.2139 28.9727C62.542 28.4102 62.042 27.7617 61.7139 27.0273C61.3936 26.293 61.2334 25.5195 61.2334 24.707ZM71.1006 23.7227C71.1006 22.707 70.9717 21.9688 70.7139 21.5078C70.4639 21.0469 70.0889 20.8164 69.5889 20.8164C69.3311 20.8164 69.0928 20.8789 68.874 21.0039C68.6553 21.1289 68.4678 21.3242 68.3115 21.5898C68.1553 21.8555 68.0303 22.1992 67.9365 22.6211C67.8428 23.0352 67.792 23.5391 67.7842 24.1328L71.1006 23.7227ZM78.9873 11.2305H85.3506V20.8281C86.2256 20.1953 87.1201 19.6914 88.0342 19.3164C88.9561 18.9336 89.9209 18.7422 90.9287 18.7422C91.4678 18.7422 91.9678 18.832 92.4287 19.0117C92.8975 19.1914 93.3037 19.4688 93.6475 19.8438C93.9912 20.2188 94.2607 20.7031 94.4561 21.2969C94.6514 21.8828 94.749 22.5859 94.749 23.4062V30.5781H88.3857V23.0078C88.3857 22.6016 88.2959 22.3047 88.1162 22.1172C87.9443 21.9297 87.6592 21.8359 87.2607 21.8359C87.0811 21.8359 86.9014 21.8633 86.7217 21.918C86.5498 21.9727 86.3818 22.043 86.2178 22.1289C86.0537 22.2148 85.8975 22.3125 85.749 22.4219C85.6006 22.5312 85.4678 22.6406 85.3506 22.75V30.5781H78.9873V11.2305ZM97.1631 26.9219C97.1631 26.3594 97.2881 25.8359 97.5381 25.3516C97.7881 24.8672 98.1475 24.4453 98.6162 24.0859C99.085 23.7266 99.6514 23.4453 100.315 23.2422C100.979 23.0312 101.722 22.9258 102.542 22.9258C103.362 22.9258 104.128 23.0234 104.839 23.2188C105.558 23.4062 106.159 23.6484 106.644 23.9453V23.8516C106.644 23.3047 106.581 22.8398 106.456 22.457C106.339 22.0742 106.155 21.7617 105.905 21.5195C105.655 21.2773 105.335 21.1016 104.944 20.9922C104.562 20.8828 104.108 20.8281 103.585 20.8281C103.108 20.8281 102.616 20.8711 102.108 20.957C101.601 21.0352 101.132 21.1523 100.702 21.3086L99.8467 19.7266C100.698 19.375 101.577 19.125 102.483 18.9766C103.397 18.8203 104.339 18.7422 105.308 18.7422C106.55 18.7422 107.647 18.8633 108.601 19.1055C109.562 19.3398 110.366 19.6953 111.015 20.1719C111.671 20.6406 112.167 21.2344 112.503 21.9531C112.839 22.6641 113.007 23.5 113.007 24.4609V30.5781H107.065L106.667 29.4531C106.433 29.6328 106.155 29.8047 105.835 29.9688C105.515 30.1328 105.163 30.2773 104.78 30.4023C104.397 30.5273 103.991 30.625 103.562 30.6953C103.132 30.7656 102.683 30.8008 102.214 30.8008C101.448 30.8008 100.753 30.7031 100.128 30.5078C99.5107 30.3047 98.9834 30.0312 98.5459 29.6875C98.1084 29.3438 97.7686 28.9375 97.5264 28.4688C97.2842 27.9922 97.1631 27.4766 97.1631 26.9219ZM103.726 26.6758C103.726 27.0977 103.862 27.4414 104.136 27.707C104.409 27.9648 104.776 28.0938 105.237 28.0938C105.487 28.0938 105.733 28.0547 105.976 27.9766C106.218 27.8906 106.44 27.7656 106.644 27.6016V25.6211C106.253 25.3867 105.823 25.2695 105.354 25.2695C104.823 25.2695 104.417 25.4023 104.136 25.668C103.862 25.9258 103.726 26.2617 103.726 26.6758ZM116.183 11.2422H122.558V20.3594C122.776 20.1484 123.034 19.9492 123.331 19.7617C123.636 19.5664 123.968 19.3945 124.327 19.2461C124.694 19.0898 125.085 18.9688 125.499 18.8828C125.921 18.7891 126.362 18.7422 126.823 18.7422C127.706 18.7422 128.534 18.8711 129.308 19.1289C130.081 19.3867 130.757 19.7695 131.335 20.2773C131.913 20.7852 132.366 21.4141 132.694 22.1641C133.03 22.9141 133.198 23.7852 133.198 24.7773C133.198 25.6914 133.038 26.5195 132.718 27.2617C132.405 27.9961 131.952 28.6289 131.358 29.1602C130.765 29.6836 130.042 30.0898 129.19 30.3789C128.347 30.6602 127.397 30.8008 126.343 30.8008C125.491 30.8008 124.726 30.6953 124.046 30.4844C123.374 30.2656 122.808 29.9805 122.347 29.6289L122.019 30.5781H116.194L116.183 11.2422ZM122.558 28.2461C122.745 28.4023 122.956 28.5273 123.19 28.6211C123.433 28.707 123.671 28.75 123.905 28.75C124.296 28.75 124.655 28.6797 124.983 28.5391C125.319 28.3906 125.608 28.1641 125.851 27.8594C126.101 27.5547 126.292 27.168 126.425 26.6992C126.565 26.2227 126.636 25.6523 126.636 24.9883C126.636 24.3164 126.569 23.7422 126.437 23.2656C126.312 22.7891 126.136 22.4023 125.909 22.1055C125.683 21.8008 125.413 21.5781 125.101 21.4375C124.788 21.2969 124.444 21.2266 124.069 21.2266C123.78 21.2266 123.507 21.2773 123.249 21.3789C122.991 21.4805 122.761 21.6094 122.558 21.7656V28.2461Z" fill="#5A6ACF"/>
<defs>
<filter id="filter0_d_248_1419" x="0.952148" y="5.69727" width="33.2219" height="33.7608" filterUnits="userSpaceOnUse" color-interpolation-filters="sRGB">
<feFlood flood-opacity="0" result="BackgroundImageFix"/>
<feColorMatrix in="SourceAlpha" type="matrix" values="0 0 0 0 0 0 0 0 0 0 0 0 0 0 0 0 0 0 127 0" result="hardAlpha"/>
<feOffset dx="1" dy="1"/>
<feGaussianBlur stdDeviation="1"/>
<feComposite in2="hardAlpha" operator="out"/>
<feColorMatrix type="matrix" values="0 0 0 0 0 0 0 0 0 0 0 0 0 0 0 0 0 0 0.1 0"/>
<feBlend mode="normal" in2="BackgroundImageFix" result="effect1_dropShadow_248_1419"/>
<feBlend mode="normal" in="SourceGraphic" in2="effect1_dropShadow_248_1419" result="shape"/>
</filter>
<clipPath id="clip0_248_1419">
<rect width="22" height="22" fill="white" transform="translate(5.56311 10.5776)"/>
</clipPath>
</defs>
</svg>
